<svg width="25" height="24" viewBox="0 0 25 24" fill="none" xmlns="http://www.w3.org/2000/svg">
<path d="M5.62104 17.8037C7.65267 16.6554 9.9998 16 12.5 16C15.0002 16 17.3473 16.6554 19.379 17.8037M15.5 10C15.5 11.6569 14.1569 13 12.5 13C10.8431 13 9.5 11.6569 9.5 10C9.5 8.34315 10.8431 7 12.5 7C14.1569 7 15.5 8.34315 15.5 10ZM21.5 12C21.5 16.9706 17.4706 21 12.5 21C7.52944 21 3.5 16.9706 3.5 12C3.5 7.02944 7.52944 3 12.5 3C17.4706 3 21.5 7.02944 21.5 12Z" stroke="white" stroke-linecap="round" stroke-linejoin="round"/>
</svg>
