<svg width="285" height="185" viewBox="0 0 285 185" fill="none" xmlns="http://www.w3.org/2000/svg">
<g clip-path="url(#clip0_190_3100)">
<path d="M31.9241 184.995C31.9241 184.995 3.50805 165.246 23.9922 123.226C37.536 95.4423 52.4455 98.5937 50.0024 43.9936C47.9121 -2.7296 123.849 -6.76561 147.849 6.78718C171.849 20.3411 169.603 30.747 219.168 25.5168C253.66 21.8766 271.107 72.1062 258.217 95.0522C239.928 127.608 296.262 150.93 274.625 184.997H31.9241V184.995Z" fill="#ECECEC"/>
<path d="M191.619 47.9173C191.619 47.9173 194.374 43.0739 200.962 43.6114C200.962 43.6114 210.526 35.5383 220.726 42.5352C220.726 42.5352 231.568 40.8013 239.597 44.0367C244.95 46.1936 246.718 48.456 246.718 48.456L191.619 47.9173Z" fill="white"/>
<g opacity="0.5">
<path d="M121.178 73.8401C121.178 73.8401 118.737 62.1119 112.068 55.5697C111.181 54.6999 109.694 55.4336 109.827 56.6697C109.829 56.6901 109.831 56.7117 109.834 56.7321C110.096 58.8391 117.649 67.164 121.176 73.8401H121.178Z" fill="#BDD4B7"/>
</g>
<g opacity="0.5">
<path d="M122.209 77.1684C122.209 77.1684 114.888 62.883 104.015 57.2333C103.352 56.8885 102.514 57.1085 102.146 57.7595C101.906 58.1836 101.837 58.8209 102.231 59.7701C103.279 62.3035 115.533 70.0682 122.21 77.1673L122.209 77.1684Z" fill="#BDD4B7"/>
</g>
<g opacity="0.5">
<path d="M210.389 126.964C210.389 126.964 214.997 115.91 222.78 110.752C223.814 110.066 225.137 111.068 224.773 112.256C224.767 112.276 224.761 112.296 224.754 112.317C224.099 114.336 215.113 121.077 210.389 126.964Z" fill="#BDD4B7"/>
</g>
<g opacity="0.5">
<path d="M208.749 130.036C208.749 130.036 218.631 117.397 230.374 113.913C231.089 113.701 231.872 114.075 232.11 114.785C232.265 115.248 232.213 115.885 231.648 116.744C230.141 119.033 216.644 124.333 208.749 130.036Z" fill="#BDD4B7"/>
</g>
<path d="M252.947 130.433C250.226 122.668 237.08 126.128 237.08 126.128C237.08 126.128 229.048 140.662 226.438 141.186C223.83 141.71 230.887 127.415 230.887 127.415C225.75 127.297 213.21 134.529 213.21 134.529C213.21 134.529 215.22 150.645 212.563 150.508C209.906 150.372 211.51 136.148 211.51 136.148C206.682 137.998 202.498 144.116 202.498 144.116C197.429 153.949 210.28 159.971 210.28 159.971C210.28 159.971 210.856 165.571 207.873 172.263C207.873 172.263 207.18 173.509 206.535 175.588L207.881 175.488C207.964 175.118 208.059 174.759 208.169 174.413C208.169 174.41 208.169 174.408 208.171 174.407C208.172 174.402 208.175 174.397 208.176 174.392C208.253 174.177 208.363 173.871 208.501 173.496C208.501 173.496 208.501 173.496 208.501 173.495C208.501 173.495 208.501 173.495 208.501 173.493C208.853 172.655 209.087 172.038 209.232 171.595C209.232 171.593 209.232 171.592 209.232 171.59C210.277 168.965 211.81 165.531 212.943 164.751C212.943 164.751 212.779 164.551 212.61 164.153C212.716 164.344 212.827 164.542 212.943 164.751C215.61 169.533 227.189 169.507 233.51 167.713C239.831 165.919 236.9 164.31 233.228 161.617C229.556 158.925 222.373 160.237 220.149 159.239C217.925 158.241 220.967 156.856 225.269 156.87C229.572 156.884 232.025 161.019 238.986 161.168C245.946 161.318 250.254 147.89 250.254 147.89C245.591 149.728 236.84 147.719 236.39 146.093C235.94 144.466 248.623 143.695 250.561 143.054C252.498 142.414 255.664 138.196 252.943 130.432L252.947 130.433Z" fill="#BDD4B7"/>
<path d="M70.5024 66.8885C73.1208 59.4152 85.7748 62.7447 85.7748 62.7447C85.7748 62.7447 93.5066 76.733 96.0164 77.2376C98.5273 77.7423 91.7339 63.9831 91.7339 63.9831C96.6789 63.8685 108.747 70.8304 108.747 70.8304C108.747 70.8304 106.813 86.3405 109.37 86.2101C111.928 86.0797 110.384 72.3885 110.384 72.3885C115.031 74.1689 119.057 80.0568 119.057 80.0568C123.935 89.5214 111.567 95.3163 111.567 95.3163C111.567 95.3163 111.012 100.706 113.883 107.148C113.883 107.148 114.55 108.347 115.17 110.348L113.874 110.253C113.794 109.897 113.702 109.551 113.597 109.218C113.597 109.216 113.597 109.214 113.595 109.213C113.594 109.208 113.592 109.204 113.591 109.198C113.517 108.99 113.41 108.696 113.276 108.336C113.276 108.336 113.276 108.336 113.276 108.335C113.276 108.335 113.276 108.335 113.276 108.334C112.937 107.528 112.712 106.933 112.574 106.507C112.574 106.506 112.574 106.505 112.574 106.502C111.567 103.976 110.093 100.671 109.002 99.9205C109.002 99.9205 109.16 99.7288 109.323 99.3444C109.22 99.5281 109.114 99.7198 109.002 99.9205C106.434 104.522 95.2906 104.499 89.2071 102.771C83.1237 101.044 85.9444 99.4952 89.4785 96.9051C93.0125 94.315 99.9258 95.5772 102.067 94.6166C104.207 93.6561 101.28 92.3225 97.139 92.3361C92.9978 92.3497 90.6361 96.3279 83.9377 96.473C77.2393 96.6171 73.0925 83.6925 73.0925 83.6925C77.5807 85.4616 86.0021 83.5281 86.4362 81.962C86.8692 80.397 74.6628 79.6554 72.7974 79.0385C70.932 78.4215 67.8864 74.3629 70.5047 66.8896L70.5024 66.8885Z" fill="#BDD4B7"/>
<path d="M216.153 49.2441H135.881V184.608H216.153V49.2441Z" fill="#A7A7A7"/>
<path d="M222.868 65.8678H216.153V66.1785H222.868V65.8678Z" fill="#163560"/>
<path d="M222.868 98.8171H216.153V99.1279H222.868V98.8171Z" fill="#163560"/>
<path d="M229.46 60H224.901C223.299 60 222 61.3028 222 62.9099V104.326C222 105.933 223.299 107.236 224.901 107.236H229.46C231.063 107.236 232.361 105.933 232.361 104.326V62.9099C232.361 61.3028 231.063 60 229.46 60Z" fill="#333333"/>
<path d="M228.069 69L227.184 67.4413H226.805V69H226V65H227.506C227.816 65 228.08 65.0554 228.299 65.1662C228.517 65.2732 228.68 65.4202 228.787 65.6074C228.898 65.7908 228.954 65.9971 228.954 66.2264C228.954 66.49 228.877 66.7287 228.724 66.9427C228.571 67.1528 228.343 67.298 228.04 67.3782L229 69H228.069ZM226.805 66.8395H227.477C227.695 66.8395 227.858 66.788 227.966 66.6848C228.073 66.5778 228.126 66.4308 228.126 66.2436C228.126 66.0602 228.073 65.9188 227.966 65.8195C227.858 65.7163 227.695 65.6648 227.477 65.6648H226.805V66.8395Z" fill="white"/>
<path d="M227.037 72.6524V73.6538H228.778V74.289H227.037V75.3476H229V76H226V72H229V72.6524H227.037Z" fill="white"/>
<path d="M227.536 83C227.247 83 226.986 82.9534 226.753 82.8601C226.524 82.7669 226.342 82.6326 226.208 82.4573C226.073 82.2821 226.004 82.0751 226 81.8364H226.889C226.901 81.9967 226.96 82.1235 227.067 82.2168C227.178 82.31 227.328 82.3566 227.518 82.3566C227.711 82.3566 227.864 82.3138 227.974 82.228C228.085 82.1385 228.14 82.0228 228.14 81.8811C228.14 81.7655 228.103 81.6704 228.028 81.5958C227.953 81.5212 227.858 81.4634 227.743 81.4224C227.632 81.3776 227.478 81.3291 227.281 81.2769C227.012 81.2023 226.792 81.1296 226.623 81.0587C226.457 80.9841 226.312 80.8741 226.19 80.7287C226.071 80.5795 226.012 80.3818 226.012 80.1357C226.012 79.9044 226.073 79.703 226.196 79.5315C226.318 79.3599 226.49 79.2294 226.711 79.1399C226.933 79.0466 227.186 79 227.47 79C227.897 79 228.243 79.0988 228.508 79.2965C228.777 79.4904 228.925 79.7627 228.953 80.1133H228.04C228.032 79.979 227.97 79.869 227.856 79.7832C227.745 79.6937 227.597 79.649 227.411 79.649C227.249 79.649 227.119 79.6881 227.02 79.7664C226.925 79.8448 226.877 79.9585 226.877 80.1077C226.877 80.2121 226.913 80.2998 226.984 80.3706C227.059 80.4378 227.15 80.4937 227.257 80.5385C227.368 80.5795 227.522 80.628 227.719 80.6839C227.988 80.7585 228.208 80.8331 228.377 80.9077C228.547 80.9823 228.694 81.0942 228.816 81.2434C228.939 81.3925 229 81.5883 229 81.8308C229 82.0396 228.943 82.2336 228.828 82.4126C228.713 82.5916 228.545 82.7352 228.324 82.8434C228.103 82.9478 227.84 83 227.536 83Z" fill="white"/>
<path d="M228 86V90H227V86H228Z" fill="white"/>
<path d="M229 94.8588H227.888V96H227.112V94.8588H226V94.1412H227.112V93H227.888V94.1412H229V94.8588Z" fill="white"/>
<path d="M228.117 100.064C228.078 99.9144 228.01 99.8021 227.912 99.7273C227.819 99.6524 227.682 99.615 227.503 99.615C227.234 99.615 227.035 99.7148 226.906 99.9144C226.782 100.111 226.717 100.431 226.713 100.877C226.807 100.734 226.943 100.624 227.123 100.545C227.302 100.463 227.497 100.422 227.708 100.422C227.961 100.422 228.185 100.472 228.38 100.572C228.575 100.672 228.727 100.818 228.836 101.011C228.945 101.2 229 101.428 229 101.695C229 101.948 228.943 102.175 228.83 102.374C228.721 102.57 228.559 102.724 228.345 102.834C228.131 102.945 227.875 103 227.579 103C227.173 103 226.854 102.918 226.62 102.754C226.39 102.59 226.228 102.362 226.135 102.07C226.045 101.774 226 101.41 226 100.979C226 100.326 226.123 99.8342 226.368 99.5027C226.614 99.1676 227.002 99 227.532 99C227.942 99 228.259 99.1016 228.485 99.3048C228.712 99.508 228.842 99.7611 228.877 100.064H228.117ZM227.52 101.037C227.314 101.037 227.14 101.093 227 101.203C226.86 101.314 226.789 101.474 226.789 101.684C226.789 101.895 226.854 102.061 226.982 102.182C227.115 102.303 227.3 102.364 227.538 102.364C227.749 102.364 227.914 102.305 228.035 102.187C228.16 102.07 228.222 101.911 228.222 101.711C228.222 101.504 228.162 101.34 228.041 101.219C227.924 101.098 227.75 101.037 227.52 101.037Z" fill="white"/>
<path d="M207.887 61.5099H192.514V83.8469H207.887V61.5099Z" fill="#E2E2E2"/>
<path d="M199.594 61.5099C199.594 61.5099 199.759 68.9559 192.514 74.7338V61.5099H199.594Z" fill="#A7A7A7"/>
<path d="M201.112 61.5099C201.112 61.5099 200.955 68.9559 207.888 74.7338V61.5099H201.112Z" fill="#A7A7A7"/>
<path d="M200.586 61.5099H200.201V83.8469H200.586V61.5099Z" fill="white"/>
<path d="M207.888 68.1223H192.514V68.433H207.888V68.1223Z" fill="white"/>
<path d="M207.888 76.2194H192.514V76.5301H207.888V76.2194Z" fill="white"/>
<path d="M208.238 84.1984H192.164V61.1594H208.238V84.1984ZM192.865 83.4953H207.538V61.8614H192.865V83.4953Z" fill="white"/>
<path d="M183.704 61.5099H168.331V83.8469H183.704V61.5099Z" fill="#E2E2E2"/>
<path d="M175.409 61.5099C175.409 61.5099 175.574 68.9559 168.33 74.7338V61.5099H175.409Z" fill="#A7A7A7"/>
<path d="M176.929 61.5099C176.929 61.5099 176.772 68.9559 183.705 74.7338V61.5099H176.929Z" fill="#A7A7A7"/>
<path d="M176.403 61.5099H176.018V83.8469H176.403V61.5099Z" fill="white"/>
<path d="M183.705 68.1223H168.331V68.433H183.705V68.1223Z" fill="white"/>
<path d="M183.705 76.2194H168.331V76.5301H183.705V76.2194Z" fill="white"/>
<path d="M184.055 84.1984H167.981V61.1594H184.055V84.1984ZM168.682 83.4953H183.355V61.8614H168.682V83.4953Z" fill="white"/>
<path d="M159.52 61.5099H144.147V83.8469H159.52V61.5099Z" fill="#E2E2E2"/>
<path d="M151.226 61.5099C151.226 61.5099 151.39 68.9559 144.147 74.7338V61.5099H151.226Z" fill="#A7A7A7"/>
<path d="M152.744 61.5099C152.744 61.5099 152.587 68.9559 159.521 74.7338V61.5099H152.744Z" fill="#A7A7A7"/>
<path d="M152.219 61.5099H151.833V83.8469H152.219V61.5099Z" fill="white"/>
<path d="M159.521 68.1224H144.147V68.4332H159.521V68.1224Z" fill="white"/>
<path d="M159.521 76.2194H144.147V76.5301H159.521V76.2194Z" fill="white"/>
<path d="M159.87 84.1984H143.796V61.1594H159.87V84.1984ZM144.497 83.4953H159.17V61.8614H144.497V83.4953Z" fill="white"/>
<path d="M207.887 95.0521H192.514V117.389H207.887V95.0521Z" fill="#CECECE"/>
<path d="M199.594 95.0521C199.594 95.0521 199.759 102.498 192.514 108.276V95.0521H199.594Z" fill="#A7A7A7"/>
<path d="M201.112 95.0521C201.112 95.0521 200.955 102.498 207.888 108.276V95.0521H201.112Z" fill="#A7A7A7"/>
<path d="M200.586 95.0521H200.201V117.389H200.586V95.0521Z" fill="white"/>
<path d="M207.888 101.664H192.514V101.974H207.888V101.664Z" fill="white"/>
<path d="M207.888 109.76H192.514V110.071H207.888V109.76Z" fill="white"/>
<path d="M208.238 117.74H192.164V94.6995H208.238V117.74ZM192.865 117.036H207.538V95.4026H192.865V117.036Z" fill="white"/>
<path d="M183.704 95.0521H168.331V117.389H183.704V95.0521Z" fill="#CECECE"/>
<path d="M175.409 95.0521C175.409 95.0521 175.574 102.498 168.33 108.276V95.0521H175.409Z" fill="#A7A7A7"/>
<path d="M176.929 95.0521C176.929 95.0521 176.772 102.498 183.705 108.276V95.0521H176.929Z" fill="#A7A7A7"/>
<path d="M176.403 95.0521H176.018V117.389H176.403V95.0521Z" fill="white"/>
<path d="M183.705 101.664H168.331V101.974H183.705V101.664Z" fill="white"/>
<path d="M183.705 109.76H168.331V110.071H183.705V109.76Z" fill="white"/>
<path d="M184.055 117.74H167.981V94.6995H184.055V117.74ZM168.682 117.036H183.355V95.4026H168.682V117.036Z" fill="white"/>
<path d="M159.52 95.0521H144.147V117.389H159.52V95.0521Z" fill="#CECECE"/>
<path d="M151.226 95.0521C151.226 95.0521 151.39 102.498 144.147 108.276V95.0521H151.226Z" fill="#A7A7A7"/>
<path d="M152.744 95.0521C152.744 95.0521 152.587 102.498 159.521 108.276V95.0521H152.744Z" fill="#A7A7A7"/>
<path d="M152.219 95.0521H151.833V117.389H152.219V95.0521Z" fill="white"/>
<path d="M159.521 101.664H144.147V101.974H159.521V101.664Z" fill="white"/>
<path d="M159.521 109.76H144.147V110.071H159.521V109.76Z" fill="white"/>
<path d="M159.87 117.74H143.796V94.6995H159.87V117.74ZM144.497 117.036H159.17V95.4026H144.497V117.036Z" fill="white"/>
<path d="M183.704 128.593H168.331V150.93H183.704V128.593Z" fill="#CECECE"/>
<path d="M175.409 128.593C175.409 128.593 175.574 136.039 168.33 141.817V128.593H175.409Z" fill="#A7A7A7"/>
<path d="M176.929 128.593C176.929 128.593 176.772 136.039 183.705 141.817V128.593H176.929Z" fill="#A7A7A7"/>
<path d="M176.403 128.593H176.018V150.93H176.403V128.593Z" fill="white"/>
<path d="M183.705 135.205H168.331V135.515H183.705V135.205Z" fill="white"/>
<path d="M183.705 143.303H168.331V143.614H183.705V143.303Z" fill="white"/>
<path d="M184.055 151.282H167.981V128.243H184.055V151.282ZM168.682 150.579H183.355V128.945H168.682V150.579Z" fill="white"/>
<path d="M159.52 128.593H144.147V150.93H159.52V128.593Z" fill="#CECECE"/>
<path d="M151.226 128.593C151.226 128.593 151.39 136.039 144.147 141.817V128.593H151.226Z" fill="#A7A7A7"/>
<path d="M152.744 128.593C152.744 128.593 152.587 136.039 159.521 141.817V128.593H152.744Z" fill="#A7A7A7"/>
<path d="M152.219 128.593H151.833V150.93H152.219V128.593Z" fill="white"/>
<path d="M159.521 135.205H144.147V135.515H159.521V135.205Z" fill="white"/>
<path d="M159.521 143.303H144.147V143.614H159.521V143.303Z" fill="white"/>
<path d="M159.87 151.282H143.796V128.243H159.87V151.282ZM144.497 150.579H159.17V128.945H144.497V150.579Z" fill="white"/>
<path d="M217.464 166.094H134.98V184.604H217.464V166.094Z" fill="#CECECE"/>
<path d="M161.866 76.3713L161.83 177.814C161.829 181.147 159.135 183.847 155.814 183.846L102.949 183.827C99.6262 183.827 96.9343 181.124 96.9355 177.791L96.9705 76.3486C96.9717 73.0169 99.6657 70.3167 102.988 70.3179L155.853 70.336C159.175 70.336 161.867 73.0395 161.866 76.3713Z" fill="white"/>
<path d="M155.814 184.603L102.948 184.585C99.2146 184.584 96.178 181.537 96.1803 177.791L96.2153 76.3486C96.2165 72.604 99.2553 69.558 102.988 69.5603L155.854 69.5784C159.587 69.5796 162.624 72.6267 162.622 76.3724L162.587 177.815C162.586 181.559 159.547 184.605 155.814 184.603ZM102.987 71.0742C100.086 71.0742 97.7257 73.4398 97.7257 76.3486L97.6907 177.791C97.6907 180.701 100.049 183.069 102.949 183.069L155.815 183.087C158.716 183.087 161.075 180.721 161.076 177.813L161.111 76.3702C161.111 73.4602 158.753 71.0924 155.853 71.0912L102.987 71.0731V71.0742Z" fill="#333333"/>
<path d="M156.139 135.07V172.612C156.139 175.102 154.127 177.12 151.645 177.12H108.112C105.63 177.12 103.619 175.102 103.619 172.612V135.07C103.619 132.579 105.63 130.562 108.112 130.562H151.645C151.97 130.562 152.288 130.597 152.593 130.663C154.62 131.098 156.14 132.906 156.14 135.07H156.139Z" fill="#ECECEC"/>
<path d="M153.086 105.287H106.673C104.986 105.287 103.619 106.658 103.619 108.35V123.72C103.619 125.412 104.986 126.783 106.673 126.783H153.086C154.772 126.783 156.139 125.412 156.139 123.72V108.35C156.139 106.658 154.772 105.287 153.086 105.287Z" fill="#ECECEC"/>
<path d="M135.131 113.706H122.457C122.301 113.706 122.174 113.579 122.174 113.421C122.174 113.265 122.3 113.136 122.457 113.136H135.131C135.287 113.136 135.414 113.263 135.414 113.421C135.414 113.578 135.288 113.706 135.131 113.706Z" fill="#333333"/>
<path d="M143.608 115.762H122.457C122.301 115.762 122.174 115.635 122.174 115.477C122.174 115.321 122.3 115.193 122.457 115.193H143.608C143.765 115.193 143.892 115.32 143.892 115.477C143.892 115.634 143.766 115.762 143.608 115.762Z" fill="#333333"/>
<path d="M119.375 110.461H107.256V122.618H119.375V110.461Z" fill="#818181"/>
<path d="M109.504 119.434L112.15 114.647L114.097 117.31L115.068 116.245L117.128 119.434H109.504Z" fill="#ECECEC"/>
<path d="M113.412 113.961C113.412 113.581 113.718 113.274 114.097 113.274C114.476 113.274 114.782 113.581 114.782 113.961C114.782 114.341 114.476 114.648 114.097 114.648C113.718 114.648 113.412 114.341 113.412 113.961Z" fill="#ECECEC"/>
<path d="M143.211 110.461H122.421C122.264 110.461 122.137 110.589 122.137 110.746V111.423C122.137 111.58 122.264 111.708 122.421 111.708H143.211C143.367 111.708 143.494 111.58 143.494 111.423V110.746C143.494 110.589 143.367 110.461 143.211 110.461Z" fill="#333333"/>
<path d="M125.242 119.215L126.987 119.468L125.726 120.704L126.025 122.447L124.463 121.626L122.903 122.45L123.199 120.706L121.935 119.472L123.681 119.216L124.459 117.628L125.242 119.215Z" fill="#FBA91D"/>
<path d="M131.288 119.215L133.033 119.468L131.772 120.704L132.071 122.447L130.509 121.626L128.949 122.45L129.245 120.706L127.981 119.472L129.727 119.216L130.506 117.628L131.288 119.215Z" fill="#FBA91D"/>
<path d="M137.333 119.215L139.08 119.468L137.817 120.704L138.117 122.447L136.555 121.626L134.995 122.45L135.291 120.706L134.027 119.472L135.772 119.216L136.551 117.628L137.333 119.215Z" fill="#FBA91D"/>
<path d="M143.379 119.215L145.125 119.468L143.863 120.704L144.162 122.447L142.601 121.626L141.041 122.45L141.337 120.706L140.072 119.472L141.818 119.216L142.597 117.628L143.379 119.215Z" fill="#FBA91D"/>
<path d="M149.425 119.215L151.171 119.468L149.909 120.704L150.209 122.447L148.647 121.626L147.086 122.45L147.383 120.706L146.118 119.472L147.864 119.216L148.643 117.628L149.425 119.215Z" fill="#FBA91D"/>
<path d="M153.086 80.3789H106.673C104.986 80.3789 103.619 81.7503 103.619 83.4419V98.8126C103.619 100.504 104.986 101.876 106.673 101.876H153.086C154.772 101.876 156.139 100.504 156.139 98.8126V83.4419C156.139 81.7503 154.772 80.3789 153.086 80.3789Z" fill="#ECECEC"/>
<path d="M135.131 88.7968H122.457C122.301 88.7968 122.174 88.6698 122.174 88.5122C122.174 88.3557 122.3 88.2275 122.457 88.2275H135.131C135.287 88.2275 135.414 88.3546 135.414 88.5122C135.414 88.6687 135.288 88.7968 135.131 88.7968Z" fill="#333333"/>
<path d="M143.608 90.8539H122.457C122.301 90.8539 122.174 90.7269 122.174 90.5693C122.174 90.4128 122.3 90.2847 122.457 90.2847H143.608C143.765 90.2847 143.892 90.4117 143.892 90.5693C143.892 90.7258 143.766 90.8539 143.608 90.8539Z" fill="#333333"/>
<path d="M119.375 85.5535H107.256V97.7103H119.375V85.5535Z" fill="#818181"/>
<path d="M109.504 94.5259L112.15 89.7391L114.097 92.4018L115.068 91.337L117.128 94.5259H109.504Z" fill="#ECECEC"/>
<path d="M113.412 89.052C113.412 88.6721 113.718 88.3647 114.097 88.3647C114.476 88.3647 114.782 88.6721 114.782 89.052C114.782 89.4319 114.476 89.7392 114.097 89.7392C113.718 89.7392 113.412 89.4319 113.412 89.052Z" fill="#ECECEC"/>
<path d="M143.211 85.5535H122.421C122.264 85.5535 122.137 85.6809 122.137 85.8381V86.5151C122.137 86.6723 122.264 86.7998 122.421 86.7998H143.211C143.367 86.7998 143.494 86.6723 143.494 86.5151V85.8381C143.494 85.6809 143.367 85.5535 143.211 85.5535Z" fill="#333333"/>
<path d="M125.242 94.3071L126.987 94.56L125.726 95.7961L126.025 97.5391L124.463 96.718L122.903 97.5425L123.199 95.7983L121.935 94.5645L123.681 94.3082L124.459 92.7206L125.242 94.3071Z" fill="#FBA91D"/>
<path d="M131.288 94.3071L133.033 94.56L131.772 95.7961L132.071 97.5391L130.509 96.718L128.949 97.5425L129.245 95.7983L127.981 94.5645L129.727 94.3082L130.506 92.7206L131.288 94.3071Z" fill="#FBA91D"/>
<path d="M137.333 94.3071L139.08 94.56L137.817 95.7961L138.117 97.5391L136.555 96.718L134.995 97.5425L135.291 95.7983L134.027 94.5645L135.772 94.3082L136.551 92.7206L137.333 94.3071Z" fill="#FBA91D"/>
<path d="M143.379 94.3071L145.125 94.56L143.863 95.7961L144.162 97.5391L142.601 96.718L141.041 97.5425L141.337 95.7983L140.072 94.5645L141.818 94.3082L142.597 92.7206L143.379 94.3071Z" fill="#FBA91D"/>
<path d="M149.425 94.3071L151.171 94.56L149.909 95.7961L150.209 97.5391L148.647 96.718L147.086 97.5425L147.383 95.7983L146.118 94.5645L147.864 94.3082L148.643 92.7206L149.425 94.3071Z" fill="#FBA91D"/>
<g opacity="0.3">
<path d="M123.249 144.876C122.903 144.829 122.55 144.805 122.192 144.805C122.133 144.805 122.075 144.805 122.018 144.808C117.718 144.901 114.262 148.424 114.262 152.758C114.262 153.179 114.295 153.591 114.358 153.994C114.94 157.745 118.135 160.626 122.018 160.71C122.075 160.711 122.133 160.712 122.192 160.712C122.55 160.712 122.903 160.689 123.249 160.642C126.725 160.178 129.487 157.457 130.026 153.994C130.088 153.592 130.121 153.179 130.121 152.758C130.121 148.725 127.129 145.393 123.249 144.876ZM123.249 158.01C122.906 158.079 122.553 158.116 122.192 158.116C122.133 158.116 122.075 158.114 122.018 158.113C119.569 158.034 117.537 156.302 116.993 153.994C116.9 153.598 116.851 153.184 116.851 152.758C116.851 149.859 119.148 147.496 122.018 147.403C122.075 147.403 122.133 147.401 122.192 147.401C122.553 147.401 122.906 147.437 123.249 147.507C125.691 147.998 127.532 150.163 127.532 152.758C127.532 153.184 127.484 153.596 127.39 153.994C126.914 156.02 125.292 157.6 123.249 158.01Z" fill="#A7A7A7"/>
<path d="M116.851 152.76C116.851 153.185 116.9 153.598 116.993 153.996H107.165V152.76H116.851Z" fill="#A7A7A7"/>
<path d="M152.593 152.76V153.996H127.39C127.484 153.599 127.532 153.185 127.532 152.76H152.593Z" fill="#A7A7A7"/>
<path d="M123.249 132.26V147.507C122.906 147.437 122.553 147.401 122.192 147.401C122.133 147.401 122.075 147.402 122.018 147.403V132.26H123.249Z" fill="#A7A7A7"/>
<path d="M123.249 158.01V174.493H122.018V158.113C122.075 158.113 122.133 158.115 122.192 158.115C122.553 158.115 122.906 158.079 123.249 158.01Z" fill="#A7A7A7"/>
<path d="M151.361 132.26V153.599V154.754H152.593V153.599V132.356L151.361 132.26Z" fill="#A7A7A7"/>
<path d="M138.696 132.26H137.464V174.493H138.696V132.26Z" fill="#A7A7A7"/>
<path d="M130.953 133.826H124.863V143.313H130.953V133.826Z" fill="#A7A7A7"/>
<path d="M113.102 140.966H107.166V147.783H113.102V140.966Z" fill="#A7A7A7"/>
<path d="M119.112 133.826H107.166V139.78H119.112V133.826Z" fill="#A7A7A7"/>
<path d="M136.242 133.826H131.982V139.723H136.242V133.826Z" fill="#A7A7A7"/>
<path d="M136.242 140.966H131.982V150.821H136.242V140.966Z" fill="#A7A7A7"/>
<path d="M136.242 155.164H131.982V160.998H136.242V155.164Z" fill="#A7A7A7"/>
<path d="M144.869 133.826H141.432V150.821H144.869V133.826Z" fill="#A7A7A7"/>
<path d="M150.245 133.826H145.985V150.821H150.245V133.826Z" fill="#A7A7A7"/>
<path d="M152.593 155.785H140.78V174.493H152.593V155.785Z" fill="#A7A7A7"/>
<path d="M136.242 167.418H124.485V174.493H136.242V167.418Z" fill="#A7A7A7"/>
<path d="M136.242 162.333H124.485V166.083H136.242V162.333Z" fill="#A7A7A7"/>
<path d="M117.726 162.333H107.166V174.493H117.726V162.333Z" fill="#A7A7A7"/>
<path d="M111.612 154.656H107.166V161.208H111.612V154.656Z" fill="#A7A7A7"/>
</g>
<path d="M81.9152 179.651H79.9277V182.367H81.9152V179.651Z" fill="#818181"/>
<path d="M93.1595 179.651H91.172V182.367H93.1595V179.651Z" fill="#818181"/>
<path d="M79.5071 182.778C79.5071 181.995 80.1402 181.359 80.9214 181.359C81.7026 181.359 82.3357 181.995 82.3357 182.778C82.3357 183.562 81.7026 184.198 80.9214 184.198C80.1402 184.198 79.5071 183.562 79.5071 182.778Z" fill="#5A5A5A"/>
<path d="M80.0622 182.778C80.0622 182.302 80.4466 181.917 80.9203 181.917C81.394 181.917 81.7784 182.302 81.7784 182.778C81.7784 183.255 81.394 183.64 80.9203 183.64C80.4466 183.64 80.0622 183.255 80.0622 182.778Z" fill="#333333"/>
<path d="M90.7526 182.778C90.7526 181.995 91.3857 181.359 92.1669 181.359C92.9481 181.359 93.5812 181.995 93.5812 182.778C93.5812 183.562 92.9481 184.198 92.1669 184.198C91.3857 184.198 90.7526 183.562 90.7526 182.778Z" fill="#5A5A5A"/>
<path d="M91.3077 182.778C91.3077 182.302 91.6921 181.917 92.1658 181.917C92.6394 181.917 93.0238 182.302 93.0238 182.778C93.0238 183.255 92.6394 183.64 92.1658 183.64C91.6921 183.64 91.3077 183.255 91.3077 182.778Z" fill="#333333"/>
<path d="M72.785 177.12H100.249V177.858C100.249 179.687 98.7681 181.173 96.9445 181.173H76.3586C74.3858 181.173 72.785 179.567 72.785 177.588V177.12Z" fill="#818181"/>
<path d="M101.191 143.087V175.965C101.191 176.362 101.147 176.748 101.063 177.12H97.2192C96.6223 177.12 96.0661 177.294 95.5969 177.595C95.3064 177.78 95.0509 178.013 94.8406 178.285C94.4393 178.799 94.2018 179.445 94.2018 180.149V181.174H79.1409V180.149C79.1409 179.092 78.6027 178.161 77.7842 177.619C77.5536 177.465 77.2981 177.343 77.0279 177.258C76.743 177.168 76.4389 177.12 76.1235 177.12H71.9676C71.884 176.748 71.8399 176.362 71.8399 175.965V143.087C71.8399 140.21 74.162 137.88 77.0268 137.88H96.0017C98.8664 137.88 101.189 140.21 101.189 143.087H101.191Z" fill="#333333"/>
<path d="M92.0425 137.862C88.4904 136.458 85.5306 136.528 83.6732 136.833C81.6586 137.165 80.4681 137.839 80.4568 137.846L80.2115 137.418C80.2623 137.389 81.4743 136.701 83.568 136.351C85.4911 136.03 88.5548 135.952 92.2223 137.404L92.0414 137.863L92.0425 137.862Z" fill="#163560"/>
<path d="M77.7853 137.88V177.619C77.5547 177.465 77.2992 177.343 77.029 177.258V137.88H77.7853Z" fill="#5A5A5A"/>
<path d="M83.8382 137.88H83.0819V181.174H83.8382V137.88Z" fill="#5A5A5A"/>
<path d="M89.4864 137.88H88.73V181.174H89.4864V137.88Z" fill="#5A5A5A"/>
<path d="M95.5969 137.88V177.595C95.3064 177.78 95.0509 178.013 94.8406 178.285V137.88H95.5969Z" fill="#5A5A5A"/>
<path d="M55.4494 120.857C55.4494 120.8 56.2769 119.083 56.0135 118.952C55.7501 118.819 55.2786 118.839 55.2233 119.14C55.1679 119.441 55.4494 120.857 55.4494 120.857Z" fill="#FFB27D"/>
<path d="M55.7614 121.882C55.7614 121.713 55.5681 119.143 55.1351 118.632C54.7032 118.121 53.8203 117.393 53.5433 117.415C53.2652 117.438 52.1799 118.885 52.5066 119.993C52.8333 121.102 54.2103 122.602 54.2103 122.602L55.7614 121.882Z" fill="#FFB27D"/>
<path d="M57.4086 118.768L54.892 119.525C54.8083 119.549 54.7202 119.502 54.6953 119.418L53.2572 114.605C53.2324 114.521 53.2799 114.433 53.3635 114.408L55.8801 113.651C55.9638 113.626 56.0519 113.674 56.0768 113.758L57.5148 118.571C57.5397 118.655 57.4922 118.743 57.4086 118.768Z" fill="#F1A34F"/>
<path d="M55.2198 113.855L52.938 114.541C52.7896 114.585 52.7054 114.742 52.7499 114.891L54.1173 119.468C54.1617 119.617 54.318 119.702 54.4663 119.657L56.7481 118.971C56.8965 118.927 56.9807 118.77 56.9362 118.621L55.5688 114.043C55.5244 113.895 55.3681 113.81 55.2198 113.855Z" fill="#D86713"/>
<path d="M53.2833 117.601C53.2833 117.601 54.3313 115.984 54.5868 116.074C54.9519 116.202 53.6371 118.254 53.6371 118.254C53.6371 118.254 54.6116 116.721 54.7643 116.836C55.1113 117.099 54.5585 118.062 54.0113 118.801C54.0113 118.801 54.9915 117.901 55.0231 118.063C55.1351 118.631 53.9469 120.008 53.9469 120.008L53.2833 118.487V117.602V117.601Z" fill="#FFB27D"/>
<path d="M52.4975 119.103C52.5484 118.905 52.8039 115.043 52.9136 115.409C53.0232 115.775 53.2833 117.801 53.2833 117.801L52.4975 119.103Z" fill="#FFB27D"/>
<path d="M69.2193 118.04C69.2193 118.04 69.1096 122.239 67.9022 125.628C66.9492 128.304 65.3099 130.475 62.5005 129.673C62.2134 129.591 61.9352 129.503 61.665 129.408C61.6628 129.406 61.6616 129.406 61.6616 129.406C55.9524 127.412 54.104 122.845 54.104 122.845C54.5291 122.142 55.7614 121.882 55.7614 121.882C56.9111 121.945 61.9635 124.097 62.2868 124.162C63.4558 124.397 64.3998 117.955 65.1595 115.723C65.9192 113.492 69.0271 112.492 69.0271 112.492L69.2204 118.039L69.2193 118.04Z" fill="#5A5A5A"/>
<path d="M68.0119 122.602L67.9022 125.628C66.9492 128.304 65.3099 130.475 62.5005 129.673C62.2134 129.591 61.9352 129.503 61.665 129.408C61.7555 129.419 63.475 129.653 64.1952 128.93C64.9346 128.187 64.8577 125.725 66.22 124.084C67.5834 122.444 68.013 122.601 68.013 122.601L68.0119 122.602Z" fill="#818181"/>
<path d="M68.1701 177.933C68.1701 177.933 69.5754 179.219 69.3007 180.133C69.026 181.047 67.7586 181.656 67.5868 182.773C67.4149 183.89 66.7298 184.499 66.1126 184.499H63.1709C63.1709 184.499 62.7164 183.713 63.8131 183.476C64.9097 183.239 65.3235 181.927 65.2545 180.708C65.1855 179.489 65.3574 177.864 65.3574 177.864L67.6885 177.322L68.1679 177.931L68.1701 177.933Z" fill="#5A5A5A"/>
<path d="M52.6875 184.266H61.3474C61.6865 184.266 61.9658 183.996 61.9748 183.656C61.9884 183.147 61.9465 182.406 61.665 181.783C61.2027 180.754 60.911 180.575 62.8634 177.583C62.2767 178.19 60.6939 177.912 59.3576 177.732C59.1937 177.998 56.7156 181.838 56.1695 182.233C55.5658 182.668 52.8729 182.513 52.6875 184.267V184.266Z" fill="#5A5A5A"/>
<path d="M66.1815 136.094C66.1815 136.094 59.9025 147.978 58.1966 154.522C56.8727 159.601 64.9549 179.255 64.9549 179.255C64.9549 179.255 65.6151 179.211 66.6937 178.787C67.7518 178.369 68.1543 177.25 68.1543 177.25C68.1543 177.25 67.675 163.197 66.0391 156.399C65.6717 154.872 67.8185 149.951 71.4408 147.254C75.063 144.558 76.5711 135.884 74.4152 135.298C72.2593 134.711 66.1827 136.093 66.1827 136.093L66.1815 136.094Z" fill="#333333"/>
<path d="M71.5561 132.72C71.5561 132.72 64.956 156.992 62.9527 162.442C60.9505 167.892 57.7749 179.46 57.7749 179.46C57.7749 179.46 59.7827 180.405 62.3535 179.958C62.3535 179.958 72.0049 165.775 72.4255 159.506C72.6199 156.608 82.3278 145.122 81.2459 137.632L71.5561 132.72Z" fill="#333333"/>
<path d="M81.2312 140.293C81.2312 140.293 79.8271 141.003 77.3433 141.212H77.341C74.4977 141.451 70.2402 141.031 65.0533 138.135C65.0533 138.135 63.6062 136.94 65.3834 131.855C66.7287 128.006 67.3844 119.89 69.026 112.492C69.026 112.492 74.3519 110.816 78.6253 112.266C81.8903 113.374 81.5659 118.4 82.1684 123.633C82.225 124.122 82.2883 124.612 82.3651 125.101C83.2571 130.83 81.2301 140.293 81.2301 140.293H81.2312Z" fill="#5A5A5A"/>
<path d="M67.1481 101.543C67.1481 101.543 70.7839 95.6078 73.599 98.6617C73.599 98.6617 75.4395 99.1335 76.4931 102.007C77.5683 104.94 75.894 107.53 74.7747 107.111C74.0568 106.843 73.7211 108.083 73.7211 108.083L67.147 101.542L67.1481 101.543Z" fill="#333333"/>
<path d="M73.0416 98.1945C73.0416 98.1945 73.2915 95.7371 76.8719 95.9764C76.8719 95.9764 75.1783 96.007 74.8154 96.7146C74.8154 96.7146 76.0466 95.9185 76.9442 96.3064C77.8419 96.6942 78.2229 98.3794 78.1742 98.9158C78.1256 99.4522 77.436 101.128 76.8323 101.216C76.2286 101.303 75.4384 100.875 75.4384 100.875L73.0416 98.1957V98.1945Z" fill="#333333"/>
<path d="M74.8448 112.116C74.5091 111.217 74.0082 110.273 73.6058 107.402L73.3909 107.478L69.7778 108.755C69.7778 108.755 70.031 109.917 70.1927 111.023C70.2594 111.475 70.3057 112.281 70.3374 112.987C70.369 113.707 71.0756 113.775 71.7935 113.742C73.7041 113.654 74.7566 112.938 74.8459 112.116H74.8448Z" fill="#FFB27D"/>
<path d="M69.7778 108.755C69.7778 108.755 70.031 109.917 70.1927 111.023C72.2661 110.663 73.0925 108.599 73.3909 107.478L69.7778 108.755Z" fill="#E8945B"/>
<path d="M73.7177 107.016C73.7177 107.016 74.5599 105.129 74.6097 103.613C74.6447 102.53 73.547 98.6957 69.7088 99.8252C69.7088 99.8252 68.5862 100.102 67.6207 100.982C66.8531 101.682 65.8028 103.104 67.6671 106.319L68.1894 107.42L73.7177 107.014V107.016Z" fill="#333333"/>
<path d="M69.2328 109.902C69.2328 109.902 74.1699 109.272 73.7301 106.194C73.2915 103.116 73.6329 100.962 70.4629 101.235C67.2928 101.507 66.8485 102.769 66.7457 103.833C66.6428 104.896 67.9372 109.987 69.2317 109.903L69.2328 109.902Z" fill="#FFB27D"/>
<path d="M68.2097 101.483C68.2097 101.483 70.0774 104.899 72.2231 105.134C74.3689 105.368 75.1874 104.682 75.1874 104.682C75.1874 104.682 73.4181 103.647 72.7714 101.487C72.7714 101.487 68.9807 99.6189 68.2097 101.484V101.483Z" fill="#333333"/>
<path d="M68.5862 101.728C68.5862 101.728 67.6953 102.68 67.5619 103.498C67.4285 104.317 67.5506 105.947 67.0735 105.959C67.0735 105.959 65.7056 103.653 66.6473 102.099C67.6467 100.452 68.5862 101.727 68.5862 101.727V101.728Z" fill="#333333"/>
<path d="M68.4166 101.877C68.4166 101.877 69.9202 105.518 72.7058 106.352C72.7058 106.352 69.7608 104.407 69.1808 101.942C68.6009 99.4794 68.4166 101.877 68.4166 101.877Z" fill="#333333"/>
<path d="M81.2312 140.293C81.2312 140.293 79.8271 141.003 77.3433 141.212H77.341C77.341 141.212 75.3004 138.645 77.5773 135.771C79.8531 132.896 77.3998 127.59 79.1522 124.704C80.372 122.695 81.5591 123.164 82.1696 123.632C82.2261 124.121 82.2894 124.611 82.3663 125.099C83.2583 130.829 81.2312 140.292 81.2312 140.292V140.293Z" fill="#818181"/>
<path d="M90.1862 136.029C90.1862 136.029 90.4892 136.736 90.912 136.783C91.6016 136.86 92.9164 137.441 93.1233 137.564C93.6829 137.897 93.6445 139.387 93.0849 139.528C92.5253 139.668 92.246 138.417 90.4982 138.082C89.9058 137.968 89.041 138.379 88.6916 136.955L90.1862 136.029Z" fill="#FFB27D"/>
<path d="M78.6265 112.266C83.7093 114.141 83.897 123.174 86.1637 127.152C88.5006 131.255 90.7763 136.654 90.7763 136.654C90.7763 136.654 90.7356 136.816 89.864 137.066C89.2501 137.241 88.6091 137.168 88.6091 137.168C88.6091 137.168 83.8066 132.81 82.5019 131.09C81.1973 129.371 78.1211 121.396 78.1211 121.396C78.1211 121.396 76.6085 111.52 78.6265 112.264V112.266Z" fill="#5A5A5A"/>
<path d="M88.8171 137.307C88.8171 137.307 88.9403 137.914 89.6899 138.405C90.4394 138.896 91.0409 139.387 91.1132 139.083C91.1856 138.779 90.6961 138.452 90.5796 137.89C90.4632 137.329 88.8171 137.306 88.8171 137.306V137.307Z" fill="#FFB27D"/>
<path d="M219.168 53.9776H133.277L137.856 33.5627H214.589L219.168 53.9776Z" fill="#333333"/>
<path d="M156.765 39.6219H148.887V47.5239H156.765V39.6219Z" fill="#5A5A5A"/>
<path d="M148.522 39.2567V47.889H157.129V39.2567H148.522ZM156.399 47.1575H149.252V39.987H156.399V47.1575Z" fill="#ECECEC"/>
<path d="M153.182 47.5238V39.6218H152.468V47.5238H153.182Z" fill="#ECECEC"/>
<path d="M158.361 37.778H146.957V39.4348H158.361V37.778Z" fill="#ECECEC"/>
<path d="M180.21 39.6219H172.332V47.5239H180.21V39.6219Z" fill="#5A5A5A"/>
<path d="M171.967 39.2567V47.889H180.574V39.2567H171.967ZM179.843 47.1575H172.695V39.987H179.843V47.1575Z" fill="#ECECEC"/>
<path d="M176.627 47.525V39.623H175.914V47.525H176.627Z" fill="#ECECEC"/>
<path d="M181.719 37.778H170.315V39.4348H181.719V37.778Z" fill="#ECECEC"/>
<path d="M203.568 39.6219H195.69V47.5239H203.568V39.6219Z" fill="#5A5A5A"/>
<path d="M195.325 39.2567V47.889H203.932V39.2567H195.325ZM203.202 47.1575H196.054V39.987H203.202V47.1575Z" fill="#ECECEC"/>
<path d="M199.985 47.525V39.623H199.272V47.525H199.985Z" fill="#ECECEC"/>
<path d="M205.077 37.778H193.673V39.4348H205.077V37.778Z" fill="#ECECEC"/>
<path d="M35.847 184.46H47.0664C47.6679 183.949 46.6504 182.787 45.5877 182.709C45.1264 182.674 44.542 182.772 43.8749 182.912C43.7201 180.855 42.8394 171.608 39.5156 171.98C35.7792 172.396 39.5156 176.052 40.5715 178.217C41.3538 179.821 42.1791 182.12 42.5567 183.205C42.2538 183.271 41.9395 183.335 41.6184 183.394C41.1232 181.869 39.2804 176.739 36.938 177.038C34.1874 177.388 35.293 179.444 37.2421 180.666C38.6722 181.564 40.4291 182.84 41.2645 183.457C40.5568 183.572 39.8197 183.65 39.0702 183.632C37.1483 183.587 36.2099 184.155 35.847 184.46Z" fill="#6AA259"/>
<path d="M266.805 184.278H258.352C257.899 183.892 258.665 183.017 259.467 182.958C259.815 182.932 260.255 183.004 260.757 183.111C260.873 181.561 261.537 174.594 264.041 174.874C266.856 175.187 264.041 177.942 263.245 179.574C262.656 180.781 262.034 182.514 261.749 183.332C261.978 183.382 262.214 183.431 262.456 183.475C262.829 182.326 264.217 178.46 265.983 178.686C268.057 178.95 267.223 180.499 265.754 181.419C264.676 182.096 263.352 183.056 262.724 183.521C263.256 183.609 263.813 183.668 264.377 183.654C265.825 183.62 266.532 184.047 266.805 184.278Z" fill="#6AA259"/>
<path d="M177.158 110.983C177.555 112.054 178.244 113.296 178.965 113.605C179.783 113.955 180.125 114.45 180.125 114.45L180.786 114.065L181.575 113.605C181.575 113.605 181.556 113.516 181.518 113.374C181.48 113.231 181.42 113.032 181.34 112.812C181.34 112.812 181.098 112.5 181.246 112.108C181.394 111.716 181.365 111.11 181.112 110.741C180.859 110.373 180.614 109.463 180.462 109.489C180.092 109.553 180.644 110.803 180.485 111.035C180.343 111.245 180.164 111.172 180.13 111.157C180.128 111.155 180.126 111.154 180.125 111.153C179.089 110.696 177.833 108.234 177.277 108.566C177.069 108.691 176.989 110.527 177.158 110.983Z" fill="#FFB27D"/>
<path d="M180.741 112.474L179.443 113.389C179.351 113.454 179.224 113.431 179.159 113.34L175.836 108.596C175.771 108.504 175.794 108.376 175.885 108.311L177.183 107.396C177.275 107.331 177.402 107.354 177.467 107.446L180.791 112.19C180.855 112.282 180.832 112.41 180.741 112.474Z" fill="#2B478B"/>
<path d="M175.235 108.776L175.995 108.24C176.065 108.191 176.161 108.208 176.211 108.278L179.59 113.102C179.64 113.172 179.623 113.269 179.553 113.318L178.792 113.854C178.722 113.904 178.626 113.887 178.577 113.816L175.197 108.993C175.148 108.922 175.164 108.826 175.235 108.776Z" fill="#233862"/>
<path d="M199.354 105.667C199.354 105.667 192.752 117.217 190.357 119.342L181.575 112.775C181.575 112.775 180.301 113.167 179.743 114.45C179.743 114.45 186.493 125.36 190.327 125.81C195.562 126.426 202.947 112.748 202.947 112.748L199.354 105.667Z" fill="#333333"/>
<path d="M211.69 184.42H215.505C215.985 184.159 216.413 183.56 216.548 182.667C216.735 181.435 218.112 180.762 218.41 179.754C218.708 178.746 217.181 177.327 217.181 177.327L216.926 176.997L216.66 176.655L214.129 177.252C214.129 177.252 214.066 177.857 214.028 178.628C214.001 179.184 213.987 179.827 214.017 180.389C214.092 181.733 213.643 183.181 212.451 183.443C211.571 183.636 211.61 184.16 211.69 184.42Z" fill="#818181"/>
<path d="M192.156 184.227H200.879C201.299 183.713 201.144 181.818 201.08 181.199C201.067 181.074 201.058 181.001 201.058 181.001C201.058 181.001 198.079 178.611 197.67 180.441C197.657 180.499 197.642 180.555 197.625 180.61C197.11 182.321 194.798 183.099 193.463 183.316C192.595 183.458 192.274 183.91 192.155 184.225L192.156 184.227Z" fill="#818181"/>
<path d="M193.818 135.384C193.818 135.384 194.27 141.045 194.801 147.849C195.524 157.093 196.393 168.447 196.479 170.598C196.627 174.333 197.224 180.307 197.224 180.307C197.224 180.307 198.638 181.727 201.468 181.128C201.468 181.128 203.99 172.599 204.711 163.576C204.722 163.428 204.733 163.279 204.744 163.13C205.415 153.943 206.456 134.599 206.456 134.599L193.818 135.384Z" fill="#333333"/>
<path d="M193.818 135.384C193.818 135.384 194.27 141.045 194.801 147.849L204.711 163.576C204.722 163.428 204.733 163.279 204.744 163.13C205.415 153.943 206.456 134.599 206.456 134.599L193.818 135.384Z" fill="#5A5A5A"/>
<path d="M196.028 134.46C196.028 134.46 202.867 155.378 207.579 165.294C212.291 175.209 213.781 177.986 213.781 177.986C213.781 177.986 216.857 176.925 217.178 176.101C217.178 176.101 215.546 158.701 212.283 153.975C210.439 151.306 209.2 142.214 209.241 139.523C209.281 136.832 208.977 131.485 208.977 131.485L196.029 134.459L196.028 134.46Z" fill="#333333"/>
<path d="M197.914 106.169C201.1 107.177 206.612 104.455 206.612 104.455C206.612 104.455 203.675 102.244 203.829 97.6456L201.365 99.637L199.692 100.99C199.692 100.99 199.699 101.787 199.882 103.185C199.882 103.189 199.882 103.192 199.883 103.197C199.975 103.895 199.694 104.594 199.134 105.018C198.348 105.613 197.914 106.17 197.914 106.17V106.169Z" fill="#FFB27D"/>
<path d="M199.692 100.99C199.692 100.99 199.699 101.787 199.882 103.185C201.736 102.867 203.839 99.8604 203.839 99.8604C202.895 99.5871 202.068 99.5384 201.365 99.6382L199.692 100.991V100.99Z" fill="#ED975D"/>
<path d="M198.718 100.914C198.718 100.914 203.98 101.791 204.474 98.495C204.968 95.1995 205.98 93.0925 202.641 92.394C199.301 91.6943 198.459 92.8532 198.027 93.9136C197.595 94.9739 197.361 100.601 198.716 100.914H198.718Z" fill="#FFB27D"/>
<path d="M193.467 135.854C193.563 135.935 193.674 135.983 193.802 135.983C194.998 135.967 198.487 136.632 201.439 136.329C203.927 136.089 206.13 135.35 208.496 134.286C208.81 134.144 209.532 133.758 209.516 133.406C209.506 133.021 209.468 132.461 209.419 131.757C209.252 129.308 208.96 125.096 209.244 120.236C209.295 119.331 209.322 118.432 209.325 117.549C209.35 110.963 208.048 105.169 205.432 103.208C205.208 103.047 203.837 103.719 202.576 104.343C201.412 104.919 200.516 104.976 199.416 104.753L198.046 105.736C196.705 106.984 195.238 108.681 194.6 111.257C194.058 113.449 193.739 117.403 193.563 121.5C193.484 123.356 193.42 125.229 193.403 127.006V127.069C193.387 127.245 193.387 127.438 193.387 127.614C193.323 132.175 193.387 135.791 193.467 135.856V135.854Z" fill="#5A5A5A"/>
<path d="M209.42 131.756C209.253 129.307 208.961 125.095 209.245 120.234C209.296 119.329 209.323 118.431 209.327 117.548C208.237 114.895 207.346 112.972 207.346 112.972H204.599C204.599 112.972 202.584 126.772 209.42 131.755V131.756Z" fill="#333333"/>
<path d="M204.478 98.1787C204.478 98.1787 203.937 98.0879 204.024 97.3418C204.111 96.5956 204.11 95.6203 203.505 95.8017C202.901 95.9832 202.87 96.4697 202.622 96.185C202.374 95.9015 202.369 94.7063 200.569 94.6235C198.77 94.5407 198.039 95.169 197.202 94.7993C196.365 94.4307 196.321 93.1594 196.321 93.1594C196.321 93.1594 196.558 93.6131 196.919 93.7571C196.919 93.7571 195.523 91.8417 197.139 90.5285C198.756 89.2153 200.404 90.0749 201.339 90.1316C203.4 90.2563 204.731 90.3811 205.405 91.7396C206.078 93.0982 205.8 96.87 204.478 98.1775V98.1787Z" fill="#333333"/>
<path d="M244.556 181.927C244.392 182.952 245.158 184.138 246.266 184.574C247.374 185.01 248.405 184.533 248.568 183.506C248.732 182.481 247.967 181.295 246.859 180.86C245.751 180.423 244.72 180.9 244.556 181.927Z" fill="#5A5A5A"/>
<path d="M230.489 181.954C230.325 182.979 231.09 184.165 232.198 184.601C233.306 185.037 234.337 184.56 234.501 183.534C234.665 182.509 233.9 181.322 232.792 180.887C231.684 180.45 230.653 180.928 230.489 181.954Z" fill="#5A5A5A"/>
<path d="M248.548 181.668L246.024 182.705C245.768 182.809 245.483 182.862 245.184 182.859L229.319 182.725L226.837 179.781L248.549 181.667L248.548 181.668Z" fill="#A7A7A7"/>
<path d="M232.305 147.568L226.234 138.652L226.226 138.635C226.188 138.556 225.22 136.647 220.081 136.129L220.058 136.127L215.825 135.553C215.277 135.453 213.698 135.274 212.995 135.639C212.683 135.801 212.565 136.062 212.636 136.436C212.773 137.177 216.808 142.959 219.485 146.665L218.69 146.866C218.002 145.913 211.964 137.534 211.765 136.468C211.661 135.91 211.879 135.487 212.413 135.209C213.561 134.614 215.775 134.984 216.009 135.024L220.183 135.589C225.716 136.151 226.935 138.252 227.057 138.492L233.107 147.377L232.304 147.566L232.305 147.568Z" fill="#333333"/>
<path d="M221.895 145.801L213.806 147.576C213.806 147.576 211.582 148.624 213.226 153.113C214.672 157.063 222.25 179.231 222.25 179.231C222.25 179.231 223.828 183.844 233.06 182.486L221.895 145.802V145.801Z" fill="#333333"/>
<path d="M218.721 151.909L227.371 176.734C227.721 177.739 228.304 178.661 229.034 179.434C230.386 180.868 232.244 181.794 234.064 181.802L241.996 181.836H242.192L247.16 181.859C247.66 181.861 248.124 181.794 248.549 181.669C248.649 181.64 248.746 181.608 248.841 181.572C250.408 180.982 251.361 179.542 251.397 177.772C251.413 177.019 251.263 176.206 250.923 175.373L241.248 151.624C240.216 149.092 237.714 147.152 235.172 146.914L233.738 146.779L233.397 146.747L233.11 146.72L228.316 146.269L227.728 146.215L223.103 145.781C222.377 145.713 221.71 145.786 221.121 145.977C221.083 145.989 221.045 146.002 221.006 146.017L220.769 146.108C218.761 146.966 217.807 149.28 218.722 151.91L218.721 151.909Z" fill="#5A5A5A"/>
<g opacity="0.5">
<path d="M229.033 179.434C230.385 180.868 232.242 181.794 234.063 181.802L241.994 181.836H242.191L247.159 181.859C247.658 181.861 248.123 181.794 248.548 181.669C248.648 181.64 248.745 181.608 248.84 181.572C250.407 180.982 251.838 178.839 251.286 176.57C251.286 176.57 234.476 176.379 231.118 176.943C229.384 177.233 229.176 178.535 229.033 179.434Z" fill="#A7A7A7"/>
</g>
<path d="M233.108 146.719C233.149 146.74 237.411 149.036 238.412 151.06C239.441 153.138 248.96 177.375 249.055 177.62C249.063 177.639 249.752 179.982 248.312 181.731L248.548 181.668C248.648 181.639 248.745 181.607 248.84 181.571C250.149 179.755 249.377 177.667 249.341 177.577C248.948 176.576 239.719 153.079 238.683 150.986C237.775 149.151 234.718 147.327 233.738 146.777L233.397 146.746L233.11 146.719H233.108Z" fill="#818181"/>
<path d="M227.727 146.214C228.35 146.58 230.77 148.154 231.946 151.065C233.325 154.48 241.645 179.288 241.729 179.537L241.734 179.555L241.743 179.573C241.75 179.585 242.374 180.923 241.795 181.835H241.994L242.191 181.837C242.718 180.861 242.104 179.663 242.014 179.495C241.756 178.729 233.597 154.406 232.229 151.019C231.216 148.509 229.315 146.952 228.315 146.268L227.727 146.214Z" fill="#818181"/>
<path d="M220.768 146.108C220.786 146.117 221.662 146.56 222.515 147.326C223.369 148.094 224.386 149.275 225.059 150.942C226.437 154.355 234.327 179.08 234.407 179.329L234.413 179.348L234.423 179.365C234.43 179.377 234.887 180.89 234.308 181.802L234.808 181.804C235.215 180.972 234.792 179.468 234.695 179.29C234.442 178.5 226.711 154.281 225.343 150.894C224.056 147.709 221.628 146.251 221.119 145.976C221.081 145.988 221.042 146.001 221.004 146.015L220.766 146.108H220.768Z" fill="#818181"/>
<path d="M215 130.716C215 130.716 215.352 133.246 215.377 133.575C215.542 135.801 215.229 136.016 216.439 136.409C216.774 136.518 217.687 136.52 218.208 135.876C218.208 135.876 217.362 135.822 217.508 134.6C217.677 133.191 217.588 133.59 216.737 132.441L216.539 130.327L215.001 130.717L215 130.716Z" fill="#FFB27D"/>
<path d="M216.147 132.861C215.158 133.055 214.085 132.975 214.085 132.975C214.085 132.975 211.148 123.875 210.77 123.043C210.393 122.212 204.6 113.381 204.6 113.381L205.523 103.645C205.523 103.645 214.55 118.769 215.466 120.894C216.981 124.406 217.507 132.28 217.507 132.28C217.507 132.28 216.924 132.709 216.147 132.861Z" fill="#333333"/>
<path d="M215.377 133.575C215.377 133.575 215.163 134.131 215.157 134.392C215.133 135.227 214.901 135.614 215.049 135.688C215.356 135.84 215.662 135.188 215.778 134.62C215.895 134.053 215.378 133.575 215.378 133.575H215.377Z" fill="#FFB27D"/>
<path d="M153.803 77.3295C153.803 76.9519 153.497 76.6469 153.122 76.6469C152.747 76.6469 152.441 76.953 152.441 77.3295C152.441 77.706 152.747 78.0122 153.122 78.0122C153.497 78.0122 153.803 77.706 153.803 77.3295Z" fill="#333333"/>
<path d="M154.342 76.597C154.286 76.597 154.23 76.5766 154.186 76.5346C153.829 76.1967 153.459 76.0322 153.086 76.047C152.507 76.0697 152.093 76.5176 152.089 76.5221C152.005 76.6151 151.861 76.6219 151.769 76.538C151.676 76.4541 151.668 76.3112 151.752 76.2171C151.773 76.1933 152.291 75.624 153.062 75.5922C153.562 75.5707 154.044 75.7771 154.496 76.2035C154.587 76.2896 154.591 76.4337 154.505 76.5255C154.461 76.5732 154.399 76.597 154.34 76.597H154.342Z" fill="#333333"/>
<path d="M155.047 75.6104C154.992 75.6104 154.935 75.59 154.891 75.548C154.298 74.9867 153.678 74.7145 153.052 74.7394C152.077 74.778 151.39 75.5276 151.383 75.5344C151.3 75.6274 151.156 75.6353 151.063 75.5503C150.971 75.4664 150.963 75.3223 151.046 75.2293C151.079 75.1931 151.861 74.3323 153.029 74.2836C153.784 74.2518 154.516 74.5659 155.203 75.2157C155.295 75.3019 155.298 75.4459 155.212 75.5378C155.167 75.5854 155.107 75.6092 155.047 75.6092V75.6104Z" fill="#333333"/>
<path d="M155.791 74.6498C155.736 74.6498 155.679 74.6294 155.635 74.5875C154.792 73.7914 153.911 73.4047 153.016 73.4409C151.625 73.4965 150.649 74.5625 150.639 74.5738C150.556 74.6668 150.412 74.6748 150.319 74.5909C150.227 74.5069 150.219 74.3629 150.302 74.2699C150.346 74.22 151.409 73.0531 152.992 72.9873C154.015 72.9442 155.009 73.3718 155.946 74.2563C156.038 74.3425 156.041 74.4865 155.955 74.5784C155.911 74.626 155.85 74.6498 155.79 74.6498H155.791Z" fill="#333333"/>
<path d="M109.472 74.44H105.039C104.876 74.44 104.744 74.3073 104.744 74.144C104.744 73.9807 104.876 73.848 105.039 73.848H109.472C109.635 73.848 109.767 73.9807 109.767 74.144C109.767 74.3073 109.635 74.44 109.472 74.44Z" fill="#333333"/>
<path d="M109.472 75.7487H105.039C104.876 75.7487 104.744 75.616 104.744 75.4527C104.744 75.2894 104.876 75.1567 105.039 75.1567H109.472C109.635 75.1567 109.767 75.2894 109.767 75.4527C109.767 75.616 109.635 75.7487 109.472 75.7487Z" fill="#333333"/>
<path d="M109.472 77.1481H105.039C104.876 77.1481 104.744 77.0154 104.744 76.8521C104.744 76.6888 104.876 76.5562 105.039 76.5562H109.472C109.635 76.5562 109.767 76.6888 109.767 76.8521C109.767 77.0154 109.635 77.1481 109.472 77.1481Z" fill="#333333"/>
<path d="M56.3493 35.7503C56.3493 35.7503 57.975 32.8313 61.8606 33.1556C61.8606 33.1556 67.5031 28.2906 73.5187 32.507C73.5187 32.507 79.9141 31.4625 84.6511 33.4119C87.8087 34.7115 88.8522 36.0746 88.8522 36.0746L56.3493 35.7503Z" fill="white"/>
<path d="M82.9168 23.394C82.9168 23.394 86.5368 16.8937 95.1922 17.6149C95.1922 17.6149 107.758 6.78041 121.158 16.1702C121.158 16.1702 135.402 13.8432 145.951 18.1842C152.984 21.0783 155.307 24.1152 155.307 24.1152L82.9168 23.3928V23.394Z" fill="white"/>
<path d="M70.7941 47.9173C70.7941 47.9173 73.5492 43.0739 80.1369 43.6114C80.1369 43.6114 89.7012 35.5383 99.9009 42.5352C99.9009 42.5352 110.743 40.8013 118.772 44.0367C124.125 46.1936 125.893 48.456 125.893 48.456L70.7941 47.9173Z" fill="white"/>
<path d="M133.005 153.894C136.988 153.894 140.218 150.654 140.218 146.658C140.218 142.663 136.988 139.423 133.005 139.423C129.021 139.423 125.792 142.663 125.792 146.658C125.792 150.654 129.021 153.894 133.005 153.894Z" fill="white"/>
<path d="M122.573 147.671C122.781 153.903 133.575 163.514 133.575 163.514C133.575 163.514 143.705 153.201 143.497 146.969C143.289 140.738 138.436 135.841 132.658 136.035C126.88 136.229 122.365 141.44 122.573 147.671ZM126.848 146.865C126.734 143.458 129.41 140.588 132.806 140.475C136.218 140.36 139.064 143.044 139.177 146.451C139.291 149.873 136.631 152.727 133.219 152.841C129.823 152.956 126.962 150.287 126.848 146.865Z" fill="#FBA91D"/>
<path d="M284.671 184.215H0.328986C0.147292 184.215 0 184.363 0 184.545V184.67C0 184.852 0.147292 185 0.328986 185H284.671C284.853 185 285 184.852 285 184.67V184.545C285 184.363 284.853 184.215 284.671 184.215Z" fill="#333333"/>
</g>
<defs>
<clipPath id="clip0_190_3100">
<rect width="285" height="185" fill="white"/>
</clipPath>
</defs>
</svg>
