<svg width="50" height="34" viewBox="0 0 50 34" fill="none" xmlns="http://www.w3.org/2000/svg">
<g id="Card Icon">
<g id="Yellow">
<path id="Vector" d="M10.601 15.9602C10.694 16.1162 10.7746 16.243 10.8354 16.3301C10.751 15.9535 10.5389 14.9601 10.314 13.8709L10.314 13.8709C10.1628 13.1372 10.0215 12.5102 9.90463 12.0487C9.84619 11.8179 9.79401 11.6291 9.7499 11.4893C9.72783 11.4194 9.70797 11.3623 9.69054 11.3186C9.67261 11.2737 9.65872 11.2468 9.64945 11.2343L9.64903 11.2337C9.55919 11.1088 9.48693 11.0195 9.38119 10.9512C9.27537 10.8828 9.13164 10.8327 8.8953 10.7964C8.42044 10.7234 7.59326 10.7088 6.00065 10.6943L6.00059 10.6943C5.07383 10.6847 4.3353 10.6871 3.8287 10.6992C3.57526 10.7052 3.3806 10.7136 3.24967 10.7241C3.21384 10.7269 3.18321 10.7299 3.15772 10.733C3.20329 10.7561 3.26634 10.784 3.34372 10.8153C3.51532 10.8847 3.75302 10.9688 4.01552 11.0506C6.92366 11.952 9.20808 13.6492 10.6009 15.96L10.601 15.9602Z" fill="#EC9615" stroke="white" stroke-width="0.1"/>
<path id="Vector_2" d="M0.435187 32.3552L0.435085 32.355C0.226309 31.9354 0.112803 31.4749 0.102678 31.0064L0.0792675 29.9231C0.0792668 29.923 0.0792661 29.923 0.0792653 29.9229C0.0636996 28.9528 0.845863 28.158 1.81615 28.158H25H48.1839C49.1541 28.158 49.9362 28.9527 49.9207 29.9228L49.9207 29.9231M0.435187 32.3552L49.6097 32.3773C49.8217 31.9511 49.937 31.4833 49.9473 31.0074L49.9707 29.9239L49.9207 29.9231M0.435187 32.3552C0.79066 33.078 1.24929 33.494 1.98839 33.7696M0.435187 32.3552L48.0115 33.7696M49.9207 29.9231L49.8973 31.0064C49.8872 31.4749 49.7737 31.9354 49.5649 32.355L49.5648 32.3552C49.2093 33.078 48.7507 33.494 48.0115 33.7696M49.9207 29.9231L48.0115 33.7696M48.0115 33.7696C48.0116 33.7696 48.0117 33.7695 48.0118 33.7695L48.0289 33.8165L48.0114 33.7696C48.0114 33.7696 48.0115 33.7696 48.0115 33.7696ZM48.0115 33.7696C47.8991 33.8105 47.7731 33.8433 47.3027 33.8686C46.8318 33.8939 46.0203 33.9114 44.5388 33.9234C41.5763 33.9476 35.9388 33.95 25 33.95C14.0612 33.95 8.42374 33.9476 5.46123 33.9234C3.97972 33.9114 3.16816 33.8939 2.69726 33.8686C2.22682 33.8433 2.10086 33.8104 1.98839 33.7696M1.98839 33.7696C1.98846 33.7696 1.98852 33.7696 1.98858 33.7696L1.97112 33.8165L1.9882 33.7695C1.98827 33.7695 1.98833 33.7695 1.98839 33.7696Z" fill="#EC9615" stroke="white" stroke-width="0.1"/>
</g>
<g id="Teal">
<path id="Vector_3" d="M0.377165 1.7495L0.377088 1.74966C0.261363 1.99786 0.200013 2.15689 0.161832 2.46278C0.123188 2.77239 0.108559 3.23061 0.0890187 4.07685L0.0720064 4.86832C0.060526 5.40243 0.490357 5.8416 1.02459 5.8416C1.56669 5.8416 2.00929 5.40817 2.02064 4.86619L2.03822 4.02651C2.03822 4.02649 2.03822 4.02647 2.03822 4.02646C2.06742 2.38847 2.09598 2.1152 2.28673 1.70765C2.57445 1.06953 3.12899 0.500834 3.73462 0.205893C3.80949 0.167752 3.78179 0.0544844 3.69761 0.0553613L3.328 0.0592155H3.32748C2.66587 0.0592155 2.28299 0.10751 1.94045 0.239337C1.30928 0.485476 0.68436 1.08432 0.377165 1.7495Z" fill="#1596C1" stroke="white" stroke-width="0.1"/>
</g>
<g id="Teal_2">
<path id="Vector_4" d="M2.37764 1.74908L2.37764 1.74908L2.37734 1.74973C2.19742 2.13405 2.16743 2.38265 2.1381 4.02829L2.13809 4.02844C2.11726 5.02362 2.91829 5.8416 3.91369 5.8416H26.0245H48.1355C49.1325 5.8416 49.9363 5.02507 49.9206 4.02818C49.9011 3.12865 49.8889 2.66367 49.8491 2.35677C49.8098 2.05446 49.7443 1.90808 49.6136 1.64453C49.326 1.06574 48.9047 0.648001 48.269 0.314286L48.2684 0.313968C48.0067 0.172112 47.7138 0.0976272 47.4162 0.0972323L26.0732 0.0688744L4.80749 0.050046C4.45118 0.0497303 4.09946 0.130364 3.77888 0.285859C3.19386 0.580249 2.65579 1.13195 2.37764 1.74908Z" fill="#1596C1" stroke="white" stroke-width="0.1"/>
<path id="Vector_5" d="M29.5833 13.1843C29.9479 13.0854 30.567 13.0667 31.1887 13.1078C31.8111 13.149 32.4461 13.2508 32.8432 13.3981C32.8433 13.3982 32.8433 13.3982 32.8434 13.3982L33.2215 13.5358C33.3401 13.579 33.4687 13.5036 33.489 13.3791L33.4891 13.3783C33.4961 13.3391 33.5075 13.2756 33.5222 13.1941C33.5691 12.9343 33.649 12.4913 33.7232 12.0649L33.7234 12.0641C33.777 11.7845 33.8208 11.5291 33.85 11.3425C33.8646 11.2492 33.8755 11.1734 33.8821 11.1205C33.8845 11.1008 33.8864 11.0846 33.8876 11.072C33.8777 11.0685 33.8652 11.0643 33.8503 11.0595C33.8087 11.0462 33.7501 11.0288 33.6783 11.0084C33.5348 10.9674 33.3401 10.9144 33.1255 10.8565C32.7011 10.7467 32.0099 10.6673 31.3206 10.6311C30.6312 10.5949 29.95 10.6024 29.5453 10.6644C27.3699 11.0104 25.8097 12.0848 25.2814 13.5777L25.2815 13.5777L25.2805 13.5801C25.2392 13.68 25.2032 13.8508 25.1765 14.0471C25.1499 14.2418 25.133 14.457 25.1281 14.6435C25.1282 15.3287 25.296 15.867 25.7285 16.3731C26.1634 16.8822 26.8685 17.3615 27.9504 17.9211L27.9505 17.9211C28.4219 18.1653 28.7987 18.3769 29.0913 18.5691C29.3834 18.761 29.5943 18.9352 29.7314 19.1053C29.8694 19.2765 29.9339 19.4452 29.9301 19.6237C29.9263 19.8006 29.8555 19.9804 29.7363 20.1746L29.7363 20.1747C29.5788 20.4311 29.3718 20.6026 29.0501 20.7137C28.7315 20.8238 28.3007 20.8746 27.6949 20.8939M29.5833 13.1843C29.2974 13.2588 29.0434 13.4029 28.8601 13.5793C28.6774 13.7551 28.5605 13.9677 28.5605 14.1792C28.5605 14.4395 28.6706 14.6576 28.9575 14.9018C29.2417 15.1438 29.7051 15.4166 30.422 15.7883L30.4224 15.7885C31.8853 16.5319 32.6347 17.106 33.0073 17.7397L33.0073 17.7398C33.7157 18.9432 33.4021 20.7054 32.2543 21.8321L32.2541 21.8323C31.6666 22.4138 30.6411 22.9509 29.6724 23.1811C28.7714 23.392 27.1478 23.4596 26.1185 23.3346L26.1184 23.3346C25.6495 23.2787 24.9321 23.1411 24.3929 23.0167C24.156 22.9621 23.9913 22.8516 23.8932 22.6999C23.7948 22.5478 23.7592 22.3475 23.7938 22.1053C23.8538 21.6861 23.9328 21.1697 23.9989 20.7683C24.0335 20.5583 24.1136 20.4239 24.2229 20.3586C24.3315 20.2937 24.4827 20.2888 24.6787 20.3687L24.6792 20.3688L24.6792 20.3688C25.7588 20.7963 26.5268 20.9328 27.6949 20.8939M29.5833 13.1843C29.5832 13.1843 29.5831 13.1843 29.583 13.1843L29.5961 13.2326L29.5835 13.1842C29.5834 13.1842 29.5833 13.1842 29.5833 13.1843ZM27.6949 20.8939L27.6933 20.8439L27.6949 20.8939C27.6949 20.8939 27.6949 20.8939 27.6949 20.8939Z" fill="#1596C1" stroke="white" stroke-width="0.1"/>
<path id="Vector_6" d="M11.6798 19.2823L11.6797 19.2821C11.6833 19.2778 11.6858 19.2734 11.6865 19.2721L11.6901 19.2653C11.6924 19.2607 11.6952 19.2548 11.6983 19.248C11.7046 19.2342 11.7131 19.2149 11.7234 19.1907C11.7443 19.1422 11.7734 19.0727 11.8097 18.9847C11.8825 18.8087 11.9847 18.5581 12.1084 18.2525C12.3559 17.6414 12.6899 16.8097 13.0479 15.9132C13.7637 14.1205 14.576 12.0681 14.9861 11.0003C15.0434 10.8615 15.1788 10.771 15.329 10.771H16.8424H18.0494C18.297 10.771 18.4643 11.0237 18.3676 11.2517C18.2301 11.5627 17.0107 14.3728 15.6549 17.5108L11.6798 19.2823ZM11.6798 19.2823L11.6766 19.2855C11.6678 19.2942 11.6558 19.3017 11.6409 19.3046C11.626 19.3074 11.6125 19.3047 11.6016 19.3003C11.5817 19.2921 11.5666 19.2763 11.5559 19.2627C11.5333 19.2342 11.5104 19.1902 11.4881 19.138C11.4428 19.0321 11.3933 18.8772 11.349 18.7021C11.04 17.4879 10.2177 16.2399 8.77631 14.8035C8.30926 14.3412 7.76669 13.8644 7.33516 13.5227C7.11916 13.3516 6.93218 13.2154 6.79696 13.1318C6.73162 13.0914 6.68095 13.0649 6.64609 13.0522C6.65019 13.0691 6.65552 13.0902 6.66207 13.1154C6.68078 13.1876 6.70901 13.2919 6.74581 13.425C6.8194 13.6912 6.92699 14.0716 7.06054 14.5382C7.32762 15.4714 7.69838 16.7487 8.10818 18.1443C8.10819 18.1443 8.1082 18.1443 8.10821 18.1444L9.08968 21.4564C9.39254 22.4784 10.3315 23.1795 11.3975 23.1795C12.4912 23.1795 13.4805 22.5299 13.9153 21.5263L15.6549 17.5108L11.6798 19.2823Z" fill="#1596C1" stroke="white" stroke-width="0.1"/>
<path id="Vector_7" d="M18.0624 23.0178L18.0624 23.0178L18.0623 23.0184C18.0389 23.1264 18.1211 23.2283 18.2316 23.2283H19.6722C20.1451 23.2283 20.5737 23.2211 20.8838 23.2078C21.039 23.2012 21.1636 23.1931 21.249 23.1838C21.292 23.1791 21.3233 23.1743 21.3432 23.1696C21.3433 23.1696 21.3433 23.1695 21.3434 23.1695L21.3461 23.1518C21.3499 23.1268 21.3557 23.0912 21.3631 23.0457C21.378 22.9547 21.3999 22.8237 21.4277 22.6586C21.4834 22.3283 21.563 21.8608 21.6587 21.3011C21.8502 20.1817 22.1064 18.6932 22.365 17.1955C22.882 14.2007 23.4092 11.1665 23.4484 10.9724L23.4484 10.9724L23.4486 10.9713C23.4716 10.8689 23.3937 10.7715 23.2886 10.7715H21.8483H20.4079C20.2753 10.7715 20.1604 10.8632 20.131 10.9924C20.1004 11.1552 19.6328 13.855 19.097 17.0083C18.5605 20.1661 18.0919 22.8719 18.0624 23.0178Z" fill="#1596C1" stroke="white" stroke-width="0.1"/>
<path id="Vector_8" d="M38.664 11.4539L38.6635 11.4545C38.6636 11.4545 38.6631 11.4552 38.662 11.4572L38.658 11.4644C38.6547 11.4705 38.6505 11.4787 38.6453 11.489C38.6349 11.5095 38.6211 11.5378 38.6041 11.5734C38.57 11.6445 38.5232 11.7443 38.4652 11.8695C38.3491 12.1197 38.1884 12.4705 37.9953 12.8948C37.6092 13.7434 37.0936 14.8852 36.5465 16.1016C35.4525 18.5343 34.2329 21.2651 33.6719 22.5448C33.5336 22.8686 33.7712 23.2283 34.1233 23.2283H35.0897H35.9144C36.4722 23.2283 36.9719 22.8836 37.1702 22.3623L37.1702 22.3621C37.3834 21.8074 37.9162 21.4414 38.5105 21.4414H39.8321H41.2077C41.7601 21.4414 42.2368 21.8288 42.3497 22.3696C42.4587 22.8708 42.9023 23.2283 43.4152 23.2283H44.0865C44.7016 23.2283 45.0948 23.221 45.3303 23.2019C45.449 23.1923 45.5231 23.1799 45.5648 23.1658C45.5749 23.1624 45.582 23.1592 45.5869 23.1565C45.587 23.1564 45.5871 23.1564 45.5872 23.1563C45.585 23.1478 45.5822 23.1362 45.5789 23.1227C45.5731 23.0985 45.5651 23.0645 45.5551 23.0211C45.5349 22.9343 45.5065 22.81 45.4705 22.6522C45.3987 22.3367 45.2972 21.8875 45.1734 21.3382C44.9257 20.2394 44.5891 18.7398 44.2232 17.1074L44.2231 17.1073C43.501 13.8422 42.8863 11.0706 42.8571 10.9454L42.8571 10.9452C42.8445 10.8904 42.8358 10.8657 42.8167 10.8478C42.7971 10.8293 42.7582 10.8113 42.665 10.7988C42.4792 10.7741 42.1233 10.7763 41.4133 10.7812C40.6245 10.7908 39.8297 10.8293 39.626 10.8577C39.2167 10.9429 38.8499 11.1686 38.664 11.4539ZM40.0071 18.8658L40.0067 18.8658L39.838 18.8624C39.1995 18.8493 38.7699 18.2032 39.0049 17.6094L39.005 17.6093C39.1149 17.333 39.2545 16.9779 39.3988 16.6109C39.5868 16.1325 39.7829 15.6338 39.9319 15.2623C40.0078 15.0659 40.0843 14.9169 40.1608 14.8176C40.2358 14.7205 40.3207 14.6587 40.414 14.6677C40.5064 14.6765 40.5803 14.7527 40.6397 14.8615C40.7004 14.973 40.754 15.133 40.8 15.3386C40.8736 15.6669 40.9564 16.0418 41.0421 16.4386C41.1751 17.038 41.2909 17.5884 41.3743 18.0056C41.4276 18.272 41.3972 18.4914 41.2734 18.6446C41.1494 18.7979 40.942 18.8722 40.67 18.8714C40.4702 18.8708 40.2445 18.8688 40.0071 18.8658Z" fill="#1596C1" stroke="white" stroke-width="0.1"/>
</g>
<g id="LightGray">
<path id="Vector_9" d="M3.00548 10.6824L2.95872 10.6647C2.9683 10.6394 2.98275 10.6147 3.00809 10.593C3.03264 10.5721 3.06454 10.5565 3.1052 10.5442C3.18517 10.52 3.31131 10.5051 3.51433 10.496C3.92225 10.4778 4.66075 10.4827 6.01148 10.4972C7.31366 10.5117 8.05919 10.5238 8.51449 10.5516C8.96957 10.5795 9.1424 10.6233 9.29408 10.7062L9.29421 10.7062C9.52169 10.8313 9.69217 10.9925 9.82869 11.2416C9.96414 11.4886 10.0653 11.8206 10.1583 12.2857C10.2461 12.7201 10.5095 13.9755 10.7437 15.0766L10.7437 15.0767C10.8608 15.6322 10.9634 16.1347 11.0342 16.4985C11.0696 16.6803 11.0971 16.8278 11.1146 16.9299C11.1233 16.9809 11.1296 17.0212 11.1331 17.049C11.1349 17.0627 11.1361 17.0746 11.1365 17.0837C11.1366 17.0878 11.1368 17.0939 11.1359 17.1001C11.1356 17.1027 11.1346 17.1095 11.1309 17.1171C11.1278 17.1236 11.1146 17.1461 11.0851 17.1461C11.0712 17.1461 11.0611 17.1405 11.0572 17.1382C11.0524 17.1353 11.0486 17.1321 11.0461 17.1298C11.0411 17.1252 11.0365 17.1199 11.0326 17.1151C11.0246 17.1051 11.0152 17.0916 11.005 17.0758C10.9842 17.0439 10.957 16.9985 10.9257 16.9432C10.863 16.8324 10.7821 16.6795 10.6988 16.5099C9.39858 13.9552 6.76695 11.9446 3.61712 11.0978C3.546 11.0788 3.48185 11.0619 3.42413 11.0467C3.32804 11.0214 3.24977 11.0008 3.18686 10.9832C3.08784 10.9555 3.01981 10.9335 2.97795 10.9092C2.95626 10.8966 2.9365 10.8806 2.92423 10.8582C2.91127 10.8346 2.91023 10.8104 2.91374 10.7888C2.91702 10.7687 2.92473 10.7482 2.93233 10.7294C2.9354 10.7218 2.93847 10.7144 2.9416 10.7069C2.94704 10.6939 2.95268 10.6804 2.95882 10.6645L3.00548 10.6824ZM3.00548 10.6824C3.06403 10.5279 3.30798 10.5182 6.01094 10.5472C8.61633 10.5762 8.98713 10.5955 9.27012 10.75L10.7436 16.4875C9.436 13.9182 6.79158 11.8995 3.62999 11.0495C3.12526 10.915 2.98098 10.8866 2.96382 10.8237C2.9551 10.7917 2.97918 10.7508 3.00548 10.6824ZM13.3738 23.127L13.3738 23.127C13.4725 22.9366 14.7861 19.9323 16.0795 16.953C16.7266 15.4624 17.3691 13.977 17.8529 12.8509C18.0948 12.2878 18.2971 11.8145 18.4404 11.4753C18.5121 11.3057 18.569 11.1695 18.6089 11.0723C18.6288 11.0238 18.6445 10.9847 18.6557 10.9561C18.6654 10.9312 18.6731 10.9105 18.6762 10.8988M13.3738 23.127L18.6768 10.8965C18.6766 10.8972 18.6764 10.898 18.6762 10.8988M13.3738 23.127L13.3734 23.1278M13.3738 23.127L13.3734 23.1278M18.6762 10.8988C18.6827 10.8779 18.6885 10.8522 18.6843 10.826M18.6762 10.8988L18.6843 10.826M13.3734 23.1278C13.2745 23.3106 13.0834 23.4245 12.8756 23.4245H11.3778H9.83389C9.66136 23.4245 9.50564 23.3211 9.43871 23.162L9.43866 23.1621M13.3734 23.1278L9.43866 23.1621M9.43866 23.1621L9.43788 23.16M9.43866 23.1621L9.43788 23.16M9.43788 23.16C9.32487 22.8535 8.56787 20.2936 7.84501 17.8091C7.48334 16.566 7.12988 15.3407 6.86928 14.4237C6.73898 13.9653 6.63185 13.5837 6.55851 13.3155C6.52185 13.1815 6.49355 13.0755 6.47501 13.0023C6.46576 12.9658 6.45881 12.9369 6.45446 12.9167C6.45231 12.9067 6.45059 12.8979 6.44959 12.891C6.44912 12.8877 6.44858 12.8834 6.44846 12.879C6.44841 12.877 6.44838 12.8731 6.44907 12.8685C6.4493 12.8669 6.45105 12.852 6.46367 12.8395C6.47754 12.8258 6.49425 12.8227 6.50399 12.8221C6.51429 12.8214 6.52416 12.8228 6.5322 12.8245C6.54849 12.828 6.56721 12.8349 6.58673 12.8433C6.62639 12.8605 6.67844 12.8883 6.73879 12.9237C6.85997 12.9946 7.01979 13.0993 7.19125 13.2206L7.19142 13.2207M9.43788 23.16L7.19142 13.2207M7.19142 13.2207C8.19067 13.9334 9.14774 14.8518 9.91146 15.7907C10.6746 16.7289 11.2477 17.6913 11.4747 18.4927L11.4748 18.4929M7.19142 13.2207L11.4748 18.4929M11.4748 18.4929L11.5336 18.7041C11.5629 18.8095 11.7085 18.8191 11.7514 18.7185L11.7517 18.7178M11.4748 18.4929L11.7517 18.7178M11.7517 18.7178C11.8585 18.4776 12.6191 16.5762 13.439 14.4891L13.4391 14.4891M11.7517 18.7178L13.4391 14.4891M13.4391 14.4891L14.2519 12.4275M13.4391 14.4891L14.2519 12.4275M42.3305 23.0197L42.3307 23.0203C42.394 23.2586 42.6098 23.4245 42.8564 23.4245H44.0769C44.6866 23.4245 45.0909 23.4172 45.3432 23.3978C45.4687 23.3881 45.56 23.3751 45.621 23.3573C45.6512 23.3484 45.6781 23.3372 45.6983 23.3217C45.7198 23.3051 45.737 23.2808 45.737 23.2489C45.737 23.2421 45.7355 23.233 45.7345 23.2274L45.7345 23.2272C45.7332 23.2195 45.7314 23.2092 45.729 23.1966C45.7243 23.1714 45.7172 23.1358 45.7081 23.0907C45.6897 23.0004 45.6626 22.8708 45.6278 22.7064C45.5581 22.3775 45.4571 21.909 45.3321 21.3354C45.082 20.1883 44.7356 18.6211 44.3502 16.9114L42.3305 23.0197ZM42.3305 23.0197C42.2815 22.8255 42.1838 22.3902 42.1154 22.0516C42.0462 21.7258 41.7585 21.4926 41.4253 21.4926H39.8322H38.6713C38.0687 21.4926 37.5285 21.8639 37.3125 22.4265C37.0817 23.0277 36.5043 23.4245 35.8604 23.4245H35.0312C34.3094 23.4245 33.8466 23.4172 33.5689 23.3978C33.431 23.3881 33.3346 23.3752 33.2742 23.3572C33.245 23.3484 33.2169 23.3365 33.1978 23.3174C33.1874 23.3069 33.1785 23.2933 33.175 23.2763C33.1715 23.2593 33.1743 23.2434 33.1796 23.2302L33.1799 23.2297C33.4095 22.6782 34.7249 19.7481 35.9969 16.9342C36.633 15.527 37.2584 14.1484 37.7322 13.1101C37.969 12.591 38.168 12.1569 38.3115 11.8468C38.3832 11.6917 38.441 11.5676 38.4828 11.4793C38.5037 11.4352 38.5207 11.3998 38.5334 11.374C38.5454 11.3496 38.555 11.3306 38.5605 11.322L38.5611 11.3212C38.649 11.1893 38.7466 11.0809 38.8738 10.9936C39.0009 10.9064 39.1552 10.8419 39.3546 10.7944C39.7515 10.6998 40.3354 10.6711 41.2568 10.6711C42.2552 10.6711 43.1195 11.3646 43.3357 12.3392L44.3501 16.9112L42.3305 23.0197ZM14.2519 12.4275C14.6699 11.3676 15.6933 10.6711 16.8326 10.6711M14.2519 12.4275L16.8326 10.6711M16.8326 10.6711C17.685 10.6711 18.1491 10.6734 18.3934 10.6954M16.8326 10.6711L18.3934 10.6954M18.3934 10.6954C18.4549 10.7009 18.504 10.7078 18.5427 10.7166M18.3934 10.6954L18.5427 10.7166M18.5427 10.7166C18.5808 10.7253 18.6127 10.7367 18.6367 10.7533M18.5427 10.7166L18.6367 10.7533M18.6367 10.7533C18.6628 10.7714 18.6795 10.7958 18.6843 10.826M18.6367 10.7533L18.6843 10.826M1.65089 27.9898L1.65089 27.9898L1.65129 27.9899C2.53783 28.0284 13.7772 28.0574 26.6296 28.0574H41.9805C46.3712 28.0574 49.9305 24.4981 49.9305 20.1074V16.9995V13.898C49.9305 9.50481 46.3672 5.94444 41.9741 5.94799L26.1027 5.96083C12.9615 5.97049 1.72321 5.99945 1.12343 6.00911C0.53546 6.02998 0.0695313 6.51269 0.0695313 7.10109V16.9898V26.3512C0.0695313 27.2341 0.768585 27.9585 1.65089 27.9898ZM31.934 10.4782L31.9342 10.4782C32.4533 10.5413 32.9437 10.6358 33.3136 10.7368C33.4983 10.7872 33.6545 10.8396 33.7695 10.8911C33.827 10.9168 33.8757 10.9428 33.913 10.9692C33.9488 10.9945 33.9806 11.0245 33.9947 11.0602L33.995 11.0612C33.999 11.0721 34 11.0843 34.0005 11.0923C34.001 11.1019 34.001 11.1133 34.0007 11.1258C34 11.1509 33.9977 11.1836 33.9943 11.2223C33.9874 11.2999 33.9754 11.4044 33.9597 11.5264C33.9284 11.7706 33.8823 12.0868 33.8328 12.4022C33.7834 12.7176 33.7306 13.0327 33.6858 13.2744C33.6634 13.3952 33.6429 13.4982 33.6259 13.574C33.6173 13.6118 33.6095 13.6434 33.6026 13.6674C33.5991 13.6793 33.5957 13.6901 33.5923 13.699C33.5895 13.7064 33.5848 13.7177 33.5776 13.7269L33.5779 13.7272L33.5734 13.7316C33.5642 13.7408 33.5538 13.7443 33.5487 13.7457C33.5429 13.7473 33.5375 13.7479 33.5336 13.7481C33.5257 13.7486 33.5173 13.7481 33.5096 13.7474C33.4939 13.7458 33.4737 13.7423 33.4504 13.7375C33.4035 13.7278 33.339 13.7118 33.2619 13.6912C33.1074 13.65 32.8995 13.5894 32.6749 13.5218L32.674 13.5215C31.9436 13.2869 31.1278 13.2006 30.4275 13.2461C30.0774 13.2688 29.7575 13.3244 29.4923 13.4101C29.2265 13.496 29.0197 13.6108 28.8912 13.7492C28.6503 14.0145 28.6792 14.4189 28.9882 14.7434L28.9882 14.7434C29.0232 14.7802 29.0936 14.835 29.1945 14.9038C29.2944 14.9719 29.4209 15.0516 29.5656 15.1382C29.8548 15.3115 30.2149 15.5114 30.5752 15.6993C31.6543 16.2455 32.3689 16.7126 32.8243 17.2259C33.2821 17.7418 33.4754 18.3013 33.5199 19.0248L33.5199 19.025C33.5792 20.0718 33.2453 20.9977 32.5739 21.7394C31.9032 22.4803 30.8981 23.035 29.6176 23.3458L29.6172 23.3459C29.1196 23.4629 28.3813 23.5331 27.6273 23.55C26.8731 23.567 26.0988 23.5308 25.5286 23.4335C25.2236 23.3847 24.7217 23.2684 24.297 23.1572C24.0844 23.1016 23.8902 23.047 23.7488 23.0026C23.6783 22.9805 23.62 22.9605 23.5788 22.944C23.5585 22.9359 23.5408 22.9279 23.5274 22.9203C23.521 22.9167 23.5134 22.9119 23.5069 22.906L23.5068 22.906C23.503 22.9025 23.4863 22.8875 23.4863 22.8625H23.4862L23.4864 22.8592C23.4883 22.8311 23.5044 22.729 23.5287 22.5841C23.5533 22.4373 23.5871 22.2425 23.6254 22.0259C23.702 21.5925 23.7966 21.071 23.8724 20.6687C23.9142 20.4466 24.0063 20.2813 24.1513 20.1948C24.297 20.1079 24.4832 20.1081 24.6957 20.1885L24.6957 20.1885L24.6969 20.189C25.6864 20.5923 26.4608 20.7456 27.4888 20.7552L27.4889 20.7552C28.2372 20.7648 28.8009 20.6682 29.1758 20.478C29.3626 20.3832 29.501 20.2659 29.5928 20.1281C29.6845 19.9907 29.7314 19.8303 29.7314 19.6461C29.7314 19.4213 29.6444 19.2262 29.418 19.0149C29.1893 18.8015 28.8216 18.5748 28.2659 18.2901C26.9379 17.6232 26.3268 17.2242 25.833 16.7256L25.8328 16.7254C25.4947 16.3811 25.2842 16.1121 25.1597 15.7997C25.0353 15.4876 24.9988 15.1369 24.9988 14.633C24.9988 14.2376 25.006 13.9983 25.0511 13.7847C25.0965 13.5702 25.1796 13.3842 25.3261 13.0942C25.8507 12.036 26.8001 11.2947 28.2337 10.8185L28.2338 10.8185C29.4123 10.4296 30.6101 10.3229 31.934 10.4782ZM23.127 13.7915L23.127 13.7915C23.0406 14.2904 22.9372 14.8895 22.8263 15.5318C22.5615 17.0656 22.2541 18.8463 22.034 20.099L21.7804 21.5745C21.6009 22.619 20.7034 23.3879 19.6437 23.4051L19.6434 23.4051C18.8106 23.4148 18.361 23.4173 18.125 23.3977C18.0657 23.3928 18.0182 23.3864 17.9807 23.3779C17.9438 23.3695 17.9127 23.3583 17.8891 23.3416C17.8635 23.3235 17.8476 23.2995 17.8424 23.2706C17.8377 23.2447 17.8424 23.219 17.8477 23.198L17.8477 23.198L17.8483 23.1958C17.8483 23.1958 17.8484 23.1955 17.8486 23.1948L17.8493 23.192L17.8514 23.1825L17.858 23.1506C17.8634 23.1239 17.8705 23.0869 17.8792 23.0401C17.8967 22.9465 17.9208 22.8142 17.9507 22.6474C18.0104 22.3138 18.0933 21.8427 18.1933 21.2687C18.3934 20.1205 18.6617 18.5606 18.9495 16.8655L18.9496 16.8654L19.7123 12.4529C19.8903 11.4232 20.7837 10.6711 21.8287 10.6711C22.7876 10.6711 23.5153 11.5347 23.3527 12.4798L23.127 13.7915Z" fill="#ECECEC" stroke="white" stroke-width="0.1"/>
<path id="Vector_10" d="M39.5275 16.7177L39.5274 16.7179C39.303 17.2876 39.1031 17.8089 38.9618 18.19C38.8911 18.3806 38.8352 18.5359 38.7982 18.6445C38.781 18.695 38.7681 18.7349 38.7597 18.7634C38.7766 18.7645 38.7975 18.7655 38.8224 18.7663C38.8946 18.7689 38.997 18.7704 39.1225 18.771C39.3733 18.7722 39.7144 18.7698 40.085 18.765C40.7559 18.7505 41.2466 18.127 41.1029 17.4715L40.8958 16.527C40.8958 16.527 40.8958 16.5269 40.8958 16.5269C40.7201 15.7445 40.5886 15.1927 40.4939 14.8537C40.4482 14.6901 40.4118 14.5788 40.3838 14.5152C40.3277 14.6615 40.183 15.0333 39.9947 15.5169C39.8564 15.8719 39.6948 16.2872 39.5275 16.7177Z" fill="#ECECEC" stroke="white" stroke-width="0.1"/>
</g>
</g>
</svg>
