<svg width="25" height="24" viewBox="0 0 25 24" fill="none" xmlns="http://www.w3.org/2000/svg">
<path d="M13.3485 2.75137C12.8799 2.28275 12.1201 2.28275 11.6515 2.75137L3.25147 11.1514C2.78284 11.62 2.78284 12.3798 3.25147 12.8484C3.7201 13.3171 4.4799 13.3171 4.94853 12.8484L5.3 12.497V20.3999C5.3 21.0626 5.83726 21.5999 6.5 21.5999H8.9C9.56274 21.5999 10.1 21.0626 10.1 20.3999V17.9999C10.1 17.3372 10.6373 16.7999 11.3 16.7999H13.7C14.3627 16.7999 14.9 17.3372 14.9 17.9999V20.3999C14.9 21.0626 15.4373 21.5999 16.1 21.5999H18.5C19.1627 21.5999 19.7 21.0626 19.7 20.3999V12.497L20.0515 12.8484C20.5201 13.3171 21.2799 13.3171 21.7485 12.8484C22.2172 12.3798 22.2172 11.62 21.7485 11.1514L13.3485 2.75137Z" fill="white"/>
</svg>
