<svg width="25" height="24" viewBox="0 0 25 24" fill="none" xmlns="http://www.w3.org/2000/svg">
<path fill-rule="evenodd" clip-rule="evenodd" d="M22.0999 12C22.0999 17.3019 17.8018 21.6 12.4999 21.6C7.19797 21.6 2.8999 17.3019 2.8999 12C2.8999 6.69806 7.19797 2.39999 12.4999 2.39999C17.8018 2.39999 22.0999 6.69806 22.0999 12ZM14.8999 8.39999C14.8999 9.72548 13.8254 10.8 12.4999 10.8C11.1744 10.8 10.0999 9.72548 10.0999 8.39999C10.0999 7.07451 11.1744 5.99999 12.4999 5.99999C13.8254 5.99999 14.8999 7.07451 14.8999 8.39999ZM12.4998 13.2C10.0788 13.2 7.99264 14.6339 7.04438 16.6989C8.36474 18.2304 10.3191 19.2 12.4999 19.2C14.6806 19.2 16.6349 18.2305 17.9553 16.699C17.0071 14.634 14.9209 13.2 12.4998 13.2Z" fill="white"/>
</svg>
