<svg width="14" height="14" viewBox="0 0 14 14" fill="none" xmlns="http://www.w3.org/2000/svg">
<path d="M3.93783 2.33337H10.0628C10.4713 2.33335 10.8644 2.48918 11.162 2.76906C11.4596 3.04895 11.6391 3.4318 11.6641 3.83954L11.667 3.93754V5.89404C11.985 5.98431 12.2673 6.17052 12.4755 6.42724C12.6837 6.68397 12.8075 6.9987 12.8302 7.32846L12.8337 7.43754V11.8125C12.8336 11.9234 12.7915 12.0301 12.7158 12.1111C12.6402 12.1921 12.5366 12.2413 12.426 12.2489C12.3154 12.2564 12.2061 12.2217 12.1201 12.1518C12.0341 12.0818 11.9779 11.9819 11.9627 11.872L11.9587 11.8125V10.5H2.04199V11.8125C2.04199 11.9183 2.0037 12.0204 1.93421 12.1001C1.86472 12.1798 1.76873 12.2316 1.66399 12.246L1.60449 12.25C1.49877 12.25 1.39663 12.2118 1.31695 12.1423C1.23727 12.0728 1.18545 11.9768 1.17108 11.872L1.16699 11.8125V7.43754C1.16699 6.70312 1.66049 6.08421 2.33366 5.89346V3.93754C2.33364 3.52904 2.48946 3.13592 2.76935 2.83837C3.04923 2.54081 3.43209 2.36125 3.83983 2.33629L3.93783 2.33337ZM11.2295 6.70837H2.77116C2.59064 6.70829 2.41651 6.77517 2.28246 6.89608C2.14841 7.01698 2.06398 7.18331 2.04549 7.36287L2.04199 7.43754V9.62504H11.9587V7.43754C11.9586 7.25712 11.8917 7.08314 11.7708 6.94921C11.6499 6.81529 11.4836 6.73093 11.3042 6.71246L11.2295 6.70837ZM10.0628 3.20837H3.93783C3.75731 3.20829 3.58318 3.27517 3.44913 3.39608C3.31508 3.51698 3.23064 3.68331 3.21216 3.86287L3.20866 3.93754V5.83337H4.08366C4.08366 5.67866 4.14512 5.53029 4.25451 5.4209C4.36391 5.3115 4.51228 5.25004 4.66699 5.25004H5.83366C5.97654 5.25006 6.11444 5.30252 6.22121 5.39746C6.32798 5.4924 6.39619 5.62323 6.41291 5.76512L6.41699 5.83337H7.58366C7.58366 5.67866 7.64512 5.53029 7.75451 5.4209C7.86391 5.3115 8.01228 5.25004 8.16699 5.25004H9.33366C9.47654 5.25006 9.61444 5.30252 9.72121 5.39746C9.82798 5.4924 9.89619 5.62323 9.91291 5.76512L9.91699 5.83337H10.792V3.93754C10.7921 3.75702 10.7252 3.58289 10.6043 3.44884C10.4834 3.3148 10.3171 3.23036 10.1375 3.21187L10.0628 3.20837Z" fill="#818181"/>
</svg>
