<svg width="20" height="20" viewBox="0 0 20 20" fill="none" xmlns="http://www.w3.org/2000/svg">
<path d="M8.2145 4.28573H11.7859C11.7859 3.81213 11.5978 3.35793 11.2629 3.02304C10.928 2.68815 10.4738 2.50002 10.0002 2.50002C9.52661 2.50002 9.07241 2.68815 8.73752 3.02304C8.40263 3.35793 8.2145 3.81213 8.2145 4.28573ZM7.14307 4.28573C7.14307 3.52797 7.44409 2.80124 7.9799 2.26543C8.51572 1.72961 9.24245 1.42859 10.0002 1.42859C10.758 1.42859 11.4847 1.72961 12.0205 2.26543C12.5563 2.80124 12.8574 3.52797 12.8574 4.28573H17.3216C17.4637 4.28573 17.6 4.34217 17.7004 4.44264C17.8009 4.5431 17.8574 4.67937 17.8574 4.82145C17.8574 4.96353 17.8009 5.09979 17.7004 5.20025C17.6 5.30072 17.4637 5.35716 17.3216 5.35716H16.3859L15.5166 15.7879C15.4534 16.5467 15.1073 17.254 14.547 17.7696C13.9867 18.2852 13.2531 18.5714 12.4916 18.5714H7.50878C6.74735 18.5714 6.01374 18.2852 5.45343 17.7696C4.89312 17.254 4.54702 16.5467 4.48378 15.7879L3.61449 5.35716H2.67878C2.5367 5.35716 2.40044 5.30072 2.29997 5.20025C2.19951 5.09979 2.14307 4.96353 2.14307 4.82145C2.14307 4.67937 2.19951 4.5431 2.29997 4.44264C2.40044 4.34217 2.5367 4.28573 2.67878 4.28573H7.14307ZM5.55164 15.6986C5.59249 16.1896 5.81637 16.6473 6.17889 16.981C6.5414 17.3147 7.01608 17.4999 7.50878 17.5H12.4916C12.9843 17.4999 13.459 17.3147 13.8215 16.981C14.184 16.6473 14.4079 16.1896 14.4488 15.6986L15.3116 5.35716H4.6895L5.55164 15.6986ZM8.39307 7.85716C8.53515 7.85716 8.67141 7.9136 8.77187 8.01407C8.87234 8.11453 8.92878 8.25079 8.92878 8.39288V14.4643C8.92878 14.6064 8.87234 14.7426 8.77187 14.8431C8.67141 14.9436 8.53515 15 8.39307 15C8.25099 15 8.11473 14.9436 8.01426 14.8431C7.91379 14.7426 7.85735 14.6064 7.85735 14.4643V8.39288C7.85735 8.25079 7.91379 8.11453 8.01426 8.01407C8.11473 7.9136 8.25099 7.85716 8.39307 7.85716ZM12.1431 8.39288C12.1431 8.25079 12.0866 8.11453 11.9862 8.01407C11.8857 7.9136 11.7494 7.85716 11.6074 7.85716C11.4653 7.85716 11.329 7.9136 11.2285 8.01407C11.1281 8.11453 11.0716 8.25079 11.0716 8.39288V14.4643C11.0716 14.6064 11.1281 14.7426 11.2285 14.8431C11.329 14.9436 11.4653 15 11.6074 15C11.7494 15 11.8857 14.9436 11.9862 14.8431C12.0866 14.7426 12.1431 14.6064 12.1431 14.4643V8.39288Z" fill="#D7263D"/>
</svg>
