<svg width="18" height="19" viewBox="0 0 18 19" fill="none" xmlns="http://www.w3.org/2000/svg">
<path d="M10.5713 7.57769C10.7523 7.78626 11.0681 7.80863 11.2767 7.62765C11.4852 7.44667 11.5076 7.13088 11.3266 6.92231L10.5713 7.57769ZM7.42868 11.4223C7.2477 11.2137 6.93191 11.1914 6.72334 11.3723C6.51477 11.5533 6.4924 11.8691 6.67337 12.0777L7.42868 11.4223ZM9.5 5.75C9.5 5.47386 9.27614 5.25 9 5.25C8.72386 5.25 8.5 5.47386 8.5 5.75H9.5ZM8.5 13.25C8.49999 13.5261 8.72385 13.75 8.99999 13.75C9.27613 13.75 9.49999 13.5262 9.5 13.25L8.5 13.25ZM15.25 9.5C15.25 12.9518 12.4518 15.75 9 15.75V16.75C13.0041 16.75 16.25 13.5041 16.25 9.5H15.25ZM9 15.75C5.54822 15.75 2.75 12.9518 2.75 9.5H1.75C1.75 13.5041 4.99594 16.75 9 16.75V15.75ZM2.75 9.5C2.75 6.04822 5.54822 3.25 9 3.25V2.25C4.99594 2.25 1.75 5.49594 1.75 9.5H2.75ZM9 3.25C12.4518 3.25 15.25 6.04822 15.25 9.5H16.25C16.25 5.49594 13.0041 2.25 9 2.25V3.25ZM9 9C8.46362 9 8.00064 8.85416 7.68636 8.64464C7.36858 8.43278 7.25 8.19502 7.25 8H6.25C6.25 8.6334 6.6351 9.14564 7.13166 9.47669C7.63172 9.81006 8.29374 10 9 10V9ZM7.25 8C7.25 7.80498 7.36858 7.56722 7.68636 7.35536C8.00064 7.14584 8.46362 7 9 7V6C8.29374 6 7.63172 6.18994 7.13166 6.52331C6.6351 6.85436 6.25 7.3666 6.25 8H7.25ZM9 7C9.7295 7 10.3015 7.26671 10.5713 7.57769L11.3266 6.92231C10.8184 6.33659 9.93614 6 9 6V7ZM9 10C9.53638 10 9.99936 10.1458 10.3137 10.3554C10.6314 10.5672 10.75 10.805 10.75 11H11.75C11.75 10.3666 11.3649 9.85435 10.8683 9.52331C10.3683 9.18994 9.70626 9 9 9V10ZM8.5 5.75V6.5H9.5V5.75H8.5ZM8.50002 12.5L8.5 13.25L9.5 13.25L9.50002 12.5L8.50002 12.5ZM9.00002 12C8.27053 12 7.69851 11.7333 7.42868 11.4223L6.67337 12.0777C7.1816 12.6634 8.06388 13 9.00001 13L9.00002 12ZM10.75 11C10.75 11.195 10.6314 11.4328 10.3137 11.6446C9.99937 11.8542 9.53639 12 9.00002 12V13C9.70628 13 10.3683 12.8101 10.8684 12.4767C11.3649 12.1456 11.75 11.6334 11.75 11H10.75ZM8.5 6.5L8.50002 12.5L9.50002 12.5L9.5 6.5L8.5 6.5Z" fill="white"/>
</svg>
