<svg width="20" height="20" viewBox="0 0 20 20" fill="none" xmlns="http://www.w3.org/2000/svg">
<path d="M13.7287 4.50664L15.4937 6.27081M14.8637 2.95248L10.0912 7.72498C9.84457 7.97123 9.67639 8.28496 9.60783 8.62664L9.16699 10.8333L11.3737 10.3916C11.7153 10.3233 12.0287 10.1558 12.2753 9.90915L17.0478 5.13664C17.1912 4.99323 17.305 4.82297 17.3826 4.63559C17.4602 4.44821 17.5002 4.24738 17.5002 4.04456C17.5002 3.84174 17.4602 3.64091 17.3826 3.45353C17.305 3.26615 17.1912 3.09589 17.0478 2.95248C16.9044 2.80906 16.7342 2.6953 16.5468 2.61769C16.3594 2.54007 16.1586 2.50012 15.9557 2.50012C15.7529 2.50012 15.5521 2.54007 15.3647 2.61769C15.1773 2.6953 15.0071 2.80906 14.8637 2.95248Z" stroke="#333333" stroke-linecap="round" stroke-linejoin="round"/>
<path d="M15.8335 12.5V15C15.8335 15.442 15.6579 15.8659 15.3453 16.1785C15.0328 16.491 14.6089 16.6666 14.1668 16.6666H5.00016C4.55814 16.6666 4.13421 16.491 3.82165 16.1785C3.50909 15.8659 3.3335 15.442 3.3335 15V5.83329C3.3335 5.39127 3.50909 4.96734 3.82165 4.65478C4.13421 4.34222 4.55814 4.16663 5.00016 4.16663H7.50016" stroke="#333333" stroke-linecap="round" stroke-linejoin="round"/>
</svg>
