<svg width="80" height="80" viewBox="0 0 80 80" fill="none" xmlns="http://www.w3.org/2000/svg">
<path d="M24.2031 18.0469C23.7031 18.3125 24.125 17.4531 18.2188 30.5625L13.4375 41.2031V49.2344C13.4531 56.5781 13.4688 57.3438 13.7344 58.0938L14.0156 58.9062H9.29688H4.57812L4.48438 59.9531C4.42188 60.5469 4.375 61.2969 4.375 61.6406V62.2656H40.0156H75.6562L75.5625 61.7188C75.5156 61.4219 75.4688 60.6562 75.4688 60.0312V58.9062H70.7344H65.9844L66.2656 58.0781C66.5312 57.3281 66.5469 56.5781 66.5625 49.2188V41.1875L61.8594 30.7031C55.8594 17.3906 56.3125 18.3281 55.7812 18.0469C55.1094 17.7031 24.8281 17.7031 24.2031 18.0469ZM58.2031 30.5156L62.4375 39.9219L59.0625 40.0156C56.9062 40.0625 55.5312 40.1719 55.2344 40.2969C54.5312 40.5938 53.8125 41.1875 53.4531 41.7812C53.2656 42.0625 52.5469 44.2031 51.8594 46.5C51.1719 48.8125 50.5312 50.7969 50.4375 50.8906C50.3125 51.0469 48.0312 51.0938 40 51.0938C31.9688 51.0938 29.6875 51.0469 29.5625 50.8906C29.4844 50.7969 28.8594 48.875 28.2031 46.6406C26.9375 42.375 26.5625 41.5 25.7344 40.875C24.8125 40.1719 24.4375 40.0938 20.9375 40.0156L17.5625 39.9219L21.7969 30.5156L26.0156 21.0938H40H53.9844L58.2031 30.5156ZM23.75 43.5C23.8438 43.625 24.5156 45.6719 25.2344 48.0469C26.6719 52.875 26.8594 53.2188 28.2812 53.9375L29.125 54.375H40H50.875L51.7188 53.9375C53.1406 53.2188 53.3281 52.875 54.7656 48.0469C55.4844 45.6719 56.1562 43.625 56.25 43.5C56.4062 43.3281 57.0781 43.2812 59.9531 43.2812H63.4531L63.4062 50.0312C63.3594 57.6719 63.3594 57.5938 62.1406 58.4062L61.5 58.8281H40H18.5L17.8594 58.4062C16.6406 57.5938 16.6406 57.6719 16.5938 50.0312L16.5469 43.2812H20.0469C22.9219 43.2812 23.5938 43.3281 23.75 43.5Z" fill="#333333"/>
<path d="M27.6719 21.2343L26.0625 21.328L21.875 30.6249L17.6875 39.9218L19.1875 39.9687C20 39.9843 20.7344 39.953 20.7969 39.8905C20.8594 39.828 22.7812 35.6093 25.0469 30.5468L29.2031 21.328L41.5938 21.2499L53.9844 21.1718L41.6406 21.1562C34.8594 21.1562 28.5625 21.1874 27.6719 21.2343Z" fill="#818181"/>
<path d="M26.5936 41.7188C26.8748 42.0938 27.3905 43.5625 28.203 46.3281C28.8748 48.5625 29.5155 50.5469 29.6248 50.7344C29.828 51.0625 29.9686 51.0938 31.328 51.0938C32.1405 51.0938 32.8123 51.0469 32.8123 50.9688C32.8123 50.5625 30.4061 42.9688 30.1873 42.6719C29.6248 41.8906 29.1405 41.6719 27.8592 41.5938C27.1873 41.5625 26.5311 41.4375 26.4061 41.3438C26.2811 41.25 26.3748 41.4219 26.5936 41.7188Z" fill="#818181"/>
<path d="M25.0469 30.625L20.8125 40H22.4531C24.4531 40 25.125 40.1875 26.0156 40.9688C26.6406 41.5156 26.7656 41.5625 27.6406 41.5625C28.7812 41.5625 29.7344 41.9219 30.1406 42.4844C30.2969 42.7031 30.9844 44.7344 31.6562 46.9844L32.8906 51.0938H41.5C48.5469 51.0938 50.1562 51.0625 50.2969 50.875C50.3906 50.7656 51.0312 48.7812 51.7344 46.4688C53.0469 42.1094 53.2812 41.5469 54.0938 40.8438C54.9531 40.1406 55.2344 40.0938 58.8438 40L62.2969 39.9219L58.125 30.625L53.9375 21.3281L41.5938 21.2812L29.2656 21.25L25.0469 30.625Z" fill="#A7A7A7"/>
<path d="M61.1873 7.78105C61.1404 7.85917 60.8904 7.96855 60.6404 8.01542C60.0467 8.14042 59.0154 9.0623 58.6717 9.79667C58.4842 10.1873 58.4217 10.6248 58.4685 11.3279C58.5467 12.656 59.0623 13.4217 60.2342 13.9842C61.2342 14.4842 62.2185 14.4685 63.2185 13.9529C64.3904 13.3592 65.2185 11.5154 64.9217 10.1717C64.7654 9.46855 63.9842 8.48417 63.3123 8.14042C62.6092 7.78105 61.3279 7.5623 61.1873 7.78105ZM62.4998 10.3435C63.0467 10.9373 62.8904 11.7498 62.156 12.1248C61.5779 12.4217 60.906 12.2029 60.6404 11.6248C60.3904 11.0779 60.4217 10.8748 60.7967 10.406C61.2185 9.8748 62.031 9.84355 62.4998 10.3435Z" fill="#E2E2E2"/>
<path d="M16.3594 9.8125C15.9531 10.2188 15.625 10.625 15.625 10.7188C15.625 10.7969 16.3281 11.5625 17.1875 12.4062L18.7656 13.9531L19.625 13.1094L20.4688 12.2812L18.875 10.6719C17.9844 9.78125 17.2344 9.0625 17.1875 9.0625C17.1406 9.0625 16.7656 9.40625 16.3594 9.8125Z" fill="#CECECE"/>
<path d="M25.8281 10.6562L24.2344 12.2656L25.0625 13L25.8906 13.7188L27.4062 12.2031L28.9375 10.6719L28.1719 9.85938L27.4219 9.04688L25.8281 10.6562Z" fill="#CECECE"/>
<path d="M16.8281 19.8125L15.3125 21.3438L16.0625 22.0781L16.8125 22.8125L18.3281 21.2812L19.8438 19.75L19.0938 19.0156L18.3438 18.2812L16.8281 19.8125Z" fill="#CECECE"/>
<path d="M16.7188 49.8906C16.7188 53.625 16.7813 56.5469 16.875 56.8594C17.0469 57.4688 17.6719 58.2031 18.3125 58.5312C18.5469 58.6562 19.1719 58.75 19.7344 58.75H20.7344L20.4063 58.0781C20.0938 57.4375 20.0781 57.2031 20.0313 50.4219L19.9844 43.4375H18.3594H16.7188V49.8906Z" fill="#E2E2E2"/>
<path d="M56.2813 43.7031C56.1875 43.8594 55.625 45.6719 55.0156 47.7344C54.3906 49.7969 53.7969 51.75 53.6719 52.0625L53.4375 52.6562H54.5469C55.8906 52.6562 56.5469 52.3281 56.9219 51.4531C57.1094 51 58.4375 46.7188 59.3125 43.7031C59.3906 43.4688 59.25 43.4375 57.9063 43.4375C56.6406 43.4375 56.3906 43.4844 56.2813 43.7031Z" fill="#E2E2E2"/>
<path d="M45.1407 4.45312C40.8126 5.06249 35.672 6.76562 30.8595 9.15624L28.7501 10.2187L28.0782 9.60937C27.6407 9.18749 27.6876 9.26562 28.2345 9.84374L29.0626 10.7031L27.4688 12.2969L25.8595 13.9062L25.0313 13.0781C24.5782 12.6406 24.2345 12.375 24.2813 12.5C24.3438 12.6719 23.8282 13.0625 22.5157 13.8594C18.2657 16.4687 14.3751 19.5156 11.0001 22.8906C8.31258 25.5781 7.17195 26.9375 5.40633 29.5937C0.890702 36.3594 -0.703048 43.8594 0.796952 51.2969C1.34383 54.0469 2.3907 56.875 3.67195 59.1406L4.29695 60.2344L4.37508 59.5312L4.4532 58.8281L9.17195 58.7812L13.8907 58.75L13.6251 58.1562C13.3907 57.6406 13.3595 56.6875 13.3126 49.4375L13.2657 41.3125L18.4532 29.7969C22.5157 20.7812 23.7188 18.2344 24.047 18.0156C24.422 17.75 25.3282 17.7344 39.4532 17.6875C47.7032 17.6562 54.7345 17.6875 55.0782 17.7344C55.422 17.7812 55.8595 17.9531 56.0626 18.0937C56.297 18.2656 58.172 22.2812 61.5782 29.8281L66.7345 41.2969L66.6876 49.4375C66.6407 56.6875 66.6095 57.6406 66.3751 58.1562L66.1095 58.75L70.8282 58.7812L75.547 58.8281L75.6251 60.1562L75.7032 61.4844L76.5157 60.4687C79.4845 56.7344 80.4845 52.3125 79.2032 48.4219C78.797 47.1719 78.3751 46.3437 77.1095 44.3125C75.0001 40.9062 72.9845 36.3437 71.7345 32.1875C71.0938 30.0625 70.4845 27.5781 69.1407 21.7969C67.9532 16.6875 67.172 14.5469 65.7345 12.4375L65.1095 11.5L64.7657 12.2812C64.047 13.9062 62.5938 14.7031 60.9688 14.3594C59.5001 14.0625 58.2813 12.5781 58.2813 11.0937C58.2813 9.85937 59.1407 8.60937 60.3438 8.04687L61.0938 7.70312L60.5001 7.29687C58.8907 6.24999 56.3595 5.20312 54.0626 4.65624C52.3126 4.24999 47.3438 4.12499 45.1407 4.45312ZM18.4376 21.3281L16.8751 22.8906L16.0626 22.0625L15.2345 21.25L16.797 19.6875L18.3438 18.125L19.172 18.9375L20.0001 19.7656L18.4376 21.3281Z" fill="#ECECEC"/>
<path d="M61.1406 10.1555C60.3906 10.4524 60.5156 11.8274 61.2968 12.093C61.9843 12.343 62.5624 11.9367 62.6249 11.218C62.7031 10.2649 62.0312 9.79612 61.1406 10.1555Z" fill="#ECECEC"/>
<path d="M20.0313 50.4214C20.0781 57.062 20.0938 57.4526 20.3906 58.0464L20.7031 58.6714L40.9844 58.7183C63.7344 58.7495 61.9688 58.8433 62.7813 57.6089L63.2031 56.9683L63.25 50.2026L63.2969 43.437H61.3438C59.625 43.437 59.3906 43.4683 59.3125 43.7026C58.4375 46.7183 57.1094 50.9995 56.9219 51.4526C56.5469 52.3276 55.8906 52.6558 54.5625 52.6558C53.4531 52.6558 53.4375 52.6558 52.75 53.3433C51.5469 54.562 51.8594 54.5308 40 54.5308C28.7188 54.5308 28.6875 54.5308 27.5781 53.687C26.7031 53.0151 26.3438 52.1714 25.0781 47.8901C24.4063 45.6558 23.7969 43.7339 23.7031 43.6245C23.6094 43.4995 23.0156 43.437 21.7656 43.437H19.9844L20.0313 50.4214Z" fill="#ECECEC"/>
<path d="M6.48438 63.234C12.3906 70.3278 21.4375 74.6246 32.5 75.6246C35.0938 75.8434 40.1875 75.8121 42.9844 75.5465C54.6719 74.4371 65.7812 70.2184 72.8906 64.2184C73.5781 63.6246 74.3125 62.9684 74.5156 62.7496L74.8906 62.3434H40.3281H5.75L6.48438 63.234Z" fill="#ECECEC"/>
</svg>
