<svg width="18" height="19" viewBox="0 0 18 19" fill="none" xmlns="http://www.w3.org/2000/svg">
<path d="M9.00001 16.7C7.09045 16.7 5.2591 15.9414 3.90884 14.5911C2.55858 13.2409 1.80001 11.4095 1.80001 9.49995C1.80001 7.59039 2.55858 5.75904 3.90884 4.40878C5.25911 3.05852 7.09045 2.29995 9.00001 2.29995C10.9096 2.29995 12.7409 3.05852 14.0912 4.40878C15.4414 5.75904 16.2 7.59039 16.2 9.49995C16.2 11.4095 15.4414 13.2409 14.0912 14.5911C12.7409 15.9414 10.9096 16.7 9.00001 16.7ZM9.00001 15.8C9.82734 15.8 10.6466 15.637 11.4109 15.3204C12.1753 15.0038 12.8698 14.5397 13.4548 13.9547C14.0398 13.3697 14.5038 12.6752 14.8205 11.9109C15.1371 11.1465 15.3 10.3273 15.3 9.49995C15.3 8.67262 15.1371 7.8534 14.8205 7.08905C14.5038 6.32469 14.0398 5.63019 13.4548 5.04518C12.8698 4.46017 12.1753 3.99612 11.4109 3.67951C10.6466 3.36291 9.82734 3.19995 9.00001 3.19995C7.32915 3.19995 5.72672 3.8637 4.54524 5.04518C3.36376 6.22666 2.70001 7.82909 2.70001 9.49995C2.70001 11.1708 3.36376 12.7732 4.54524 13.9547C5.72672 15.1362 7.32915 15.8 9.00001 15.8ZM9.00001 7.24995C8.82099 7.24995 8.6493 7.17884 8.52272 7.05225C8.39613 6.92566 8.32501 6.75397 8.32501 6.57495C8.32501 6.39593 8.39613 6.22424 8.52272 6.09765C8.6493 5.97107 8.82099 5.89995 9.00001 5.89995C9.17903 5.89995 9.35072 5.97107 9.47731 6.09765C9.6039 6.22424 9.67501 6.39593 9.67501 6.57495C9.67501 6.75397 9.6039 6.92566 9.47731 7.05225C9.35072 7.17884 9.17903 7.24995 9.00001 7.24995ZM9.00001 13.1C8.89469 13.1 8.79269 13.0631 8.71178 12.9957C8.63087 12.9282 8.57617 12.8346 8.55721 12.731L8.55001 12.65L8.55001 8.59995C8.54981 8.4875 8.59171 8.37905 8.66747 8.29595C8.74323 8.21285 8.84736 8.16112 8.95935 8.15096C9.07134 8.1408 9.18308 8.17294 9.27256 8.24105C9.36204 8.30916 9.42278 8.4083 9.44281 8.51895L9.45001 8.59995L9.45001 12.65C9.45001 12.7693 9.4026 12.8838 9.31821 12.9681C9.23382 13.0525 9.11936 13.1 9.00001 13.1Z" fill="white"/>
</svg>
