<svg width="18" height="16" viewBox="0 0 18 16" fill="none" xmlns="http://www.w3.org/2000/svg">
<g id="Group">
<path id="Vector" d="M15.8014 5.94286C16.29 6.38 16.7014 6.80429 17.01 7.13857C17.2232 7.37482 17.3413 7.68176 17.3413 8C17.3413 8.31825 17.2232 8.62518 17.01 8.86143C15.66 10.3143 12.5871 13.1429 9 13.1429H8.48572M4.97572 12.0243C3.48639 11.1902 2.14068 10.1223 0.990002 8.86143C0.77678 8.62518 0.658752 8.31825 0.658752 8C0.658752 7.68176 0.77678 7.37482 0.990002 7.13857C2.34 5.68572 5.41286 2.85715 9 2.85715C10.414 2.8867 11.7979 3.27135 13.0243 3.97572M16.0714 0.928574L1.92857 15.0714" stroke="#818181" stroke-linecap="round" stroke-linejoin="round"/>
<path id="Vector_2" d="M7.18716 9.81286C6.70426 9.33284 6.43146 8.68089 6.42859 8C6.42859 7.31802 6.69951 6.66396 7.18174 6.18173C7.66398 5.69949 8.31803 5.42857 9.00002 5.42857C9.6809 5.43144 10.3329 5.70425 10.8129 6.18715M11.2372 9.28572C11.0083 9.67696 10.6801 10.0008 10.2857 10.2243" stroke="#818181" stroke-linecap="round" stroke-linejoin="round"/>
</g>
</svg>
