<svg width="18" height="18" viewBox="0 0 18 18" fill="none" xmlns="http://www.w3.org/2000/svg">
<path d="M4.5 9L3 9M4.5 9C4.5 9.82843 5.17157 10.5 6 10.5C6.82843 10.5 7.5 9.82843 7.5 9M4.5 9C4.5 8.17157 5.17157 7.5 6 7.5C6.82843 7.5 7.5 8.17157 7.5 9M13.5 13.5C13.5 12.6716 12.8284 12 12 12C11.1716 12 10.5 12.6716 10.5 13.5M13.5 13.5C13.5 14.3284 12.8284 15 12 15C11.1716 15 10.5 14.3284 10.5 13.5M13.5 13.5L15 13.5M10.5 13.5L3 13.5M7.5 9L15 9M13.5 4.5C13.5 3.67157 12.8284 3 12 3C11.1716 3 10.5 3.67157 10.5 4.5M13.5 4.5C13.5 5.32843 12.8284 6 12 6C11.1716 6 10.5 5.32843 10.5 4.5M13.5 4.5L15 4.5M10.5 4.5L3 4.5" stroke="#818181" stroke-linecap="round" stroke-linejoin="round"/>
</svg>
