<svg width="40" height="40" viewBox="0 0 40 40" fill="none" xmlns="http://www.w3.org/2000/svg">
<g id="emojione:flag-for-south-africa">
<path id="Vector" d="M38.0625 25C38.5 23.4375 38.75 21.75 38.75 20C38.75 18.25 38.5 16.5625 38.0625 15H19.8125L9.25 4.625C6.75 6.375 4.6875 8.75 3.25 11.5L11.875 20L3.3125 28.5C4.6875 31.25 6.75 33.625 9.3125 35.375L19.8125 25H38.0625Z" fill="#699635"/>
<path id="Vector_2" d="M2.1875 14.0625C1.5625 15.9375 1.25 17.9375 1.25 20C1.25 22.0625 1.5625 24.0625 2.1875 25.9375L8.1875 20L2.1875 14.0625Z" fill="#3E4347"/>
<path id="Vector_3" d="M11.4375 36.6875C14 38 16.9375 38.75 20 38.75C27.6875 38.75 34.3125 34.125 37.1875 27.4375H20.875L11.4375 36.6875Z" fill="#428BC1"/>
<path id="Vector_4" d="M37.1875 12.5625C34.3125 5.875 27.6875 1.25 20 1.25C16.9375 1.25 14 2 11.4375 3.3125L20.875 12.5625H37.1875Z" fill="#ED4C5C"/>
<path id="Vector_5" d="M37.8125 14.1875C37.625 13.625 37.4375 13.0625 37.1875 12.5625H20.875L11.4375 3.3125C11 3.5 10.625 3.75 10.1875 4C9.875 4.1875 9.5625 4.4375 9.25 4.625L19.8125 15H38.0625C38 14.75 37.9375 14.4375 37.8125 14.1875Z" fill="white"/>
<path id="Vector_6" d="M3.3125 11.5C3.25 11.625 3.1875 11.75 3.125 11.9375C2.8125 12.625 2.5 13.3125 2.25 14.0625L8.25 20L2.25 25.9375C2.5 26.6875 2.75 27.375 3.125 28.0625C3.1875 28.1875 3.25 28.3125 3.3125 28.5L11.875 20L3.3125 11.5Z" fill="#FFCE31"/>
<path id="Vector_7" d="M19.8125 25L9.25 35.375C9.4375 35.5 9.6875 35.6875 9.875 35.8125C10.375 36.125 10.875 36.4375 11.4375 36.6875L20.875 27.4375H37.1875C37.4375 26.8125 37.6875 26.1875 37.9375 25.5C38 25.3125 38 25.1875 38.0625 25H19.8125Z" fill="white"/>
</g>
</svg>
