<svg width="31" height="30" viewBox="0 0 31 30" fill="none" xmlns="http://www.w3.org/2000/svg">
<g id="Icon">
<g id="Yellow">
<path id="Vector" d="M1.53642 8.82593C0.897861 10.25 0.456238 11.8558 0.277201 13.4089C0.163812 14.4169 0.235426 16.5442 0.42043 17.5757C0.677049 18.9705 1.07093 20.1836 1.72143 21.555C1.85869 21.8539 1.99595 22.0824 2.01982 22.0766C2.04966 22.0649 3.18356 21.1682 4.54424 20.0723L7.01494 18.0914L6.93139 17.8453C6.74042 17.3296 6.54944 16.4153 6.48976 15.7238C6.40025 14.8037 6.48976 13.7839 6.72848 12.8404C6.82397 12.4712 6.88961 12.143 6.87171 12.1195C6.818 12.0316 1.95418 8.14025 1.90046 8.14025C1.87063 8.14025 1.70949 8.45086 1.53642 8.82593Z" fill="#ECC115"/>
</g>
<g id="Red">
<path id="Vector_2" d="M14.0093 0.035121C12.7262 0.158193 11.0731 0.550847 9.89143 1.00211C7.01491 2.10975 4.39501 4.20781 2.70014 6.763C2.46142 7.11463 2.19287 7.55417 2.09141 7.72999L1.91238 8.05232L4.43679 10.0859C5.82731 11.2053 6.96717 12.0902 6.96717 12.0492C6.96717 11.932 7.46847 10.883 7.71316 10.4786C8.5606 9.09549 9.80191 7.92339 11.2044 7.18496C13.1917 6.13593 15.5191 5.8429 17.6735 6.37621C18.4792 6.57547 18.9865 6.76886 19.7444 7.16152L20.3233 7.45455L22.8 5.46783C24.1666 4.37777 25.2826 3.46939 25.2826 3.45181C25.2826 3.40492 24.6918 2.95366 24.095 2.55515C22.1137 1.23067 19.8399 0.392613 17.3931 0.0820055C16.7545 -4.19617e-05 14.6419 -0.0293446 14.0093 0.035121Z" fill="#EC4040"/>
</g>
<g id="Lime">
<path id="Vector_3" d="M4.52034 20.1602C3.18951 21.2268 2.09142 22.1235 2.08545 22.1528C2.07351 22.1879 2.17497 22.3989 2.3182 22.6333C4.27566 25.9035 7.59977 28.4294 11.27 29.4374C12.756 29.8418 13.9496 30 15.5132 30C18.0197 30 20.2039 29.4901 22.4359 28.3884C23.4147 27.9078 25.0857 26.8177 25.014 26.7122C24.9961 26.6829 23.8981 25.7921 22.5732 24.7255C21.2483 23.6589 20.1443 22.7623 20.1264 22.7329C20.1084 22.7036 19.8459 22.7974 19.5475 22.9439C18.0913 23.6648 16.3367 23.993 14.7612 23.8523C12.5352 23.6472 10.6673 22.7974 9.14545 21.303C8.25624 20.4298 7.89816 19.9375 7.33718 18.7947C7.18202 18.4782 7.02685 18.2203 6.99701 18.2203C6.96121 18.2203 5.85118 19.0936 4.52034 20.1602Z" fill="#15C140"/>
</g>
<g id="Cyan">
<path id="Vector_4" d="M15.7996 15.1729V18.1617H19.8578C23.3848 18.1617 23.916 18.1735 23.916 18.2497C23.916 18.2965 23.7548 18.6423 23.5579 19.0232C23.1879 19.7382 22.6567 20.4884 22.0719 21.1096C21.7078 21.4964 20.7112 22.2993 20.3352 22.5103C20.2039 22.5864 20.0965 22.6568 20.1025 22.6743C20.1025 22.6919 21.2304 23.6062 22.603 24.708L25.1036 26.7064L25.5392 26.343C28.3799 23.9519 30.3076 20.336 30.7193 16.6263C30.8447 15.4718 30.7551 13.0865 30.5582 12.3129L30.5284 12.184H23.164H15.7996V15.1729Z" fill="#4096EC"/>
</g>
</g>
</svg>
