<svg width="18" height="18" viewBox="0 0 18 18" fill="none" xmlns="http://www.w3.org/2000/svg">
<path d="M13.2426 12.4926C12.6185 13.1168 11.3891 14.3462 10.4137 15.3216C9.63264 16.1026 8.36745 16.1027 7.5864 15.3217C6.62886 14.3641 5.42126 13.1565 4.75736 12.4926C2.41421 10.1495 2.41421 6.35051 4.75736 4.00736C7.10051 1.66421 10.8995 1.66421 13.2426 4.00736C15.5858 6.35051 15.5858 10.1495 13.2426 12.4926Z" stroke="#818181" stroke-linecap="round" stroke-linejoin="round"/>
<path d="M11.25 8.25C11.25 9.49264 10.2426 10.5 9 10.5C7.75736 10.5 6.75 9.49264 6.75 8.25C6.75 7.00736 7.75736 6 9 6C10.2426 6 11.25 7.00736 11.25 8.25Z" stroke="#818181" stroke-linecap="round" stroke-linejoin="round"/>
</svg>
