<svg width="18" height="19" viewBox="0 0 18 19" fill="none" xmlns="http://www.w3.org/2000/svg">
<g clip-path="url(#clip0_523_1422)">
<path d="M7.5 4.5H12V5.5H7.5V4.5Z" fill="white"/>
<path d="M7.5 6.5H12V7.5H7.5V6.5Z" fill="white"/>
<path d="M7.5 8.5H12V9.5H7.5V8.5Z" fill="white"/>
<path d="M7.5 10.5H12V11.5H7.5V10.5Z" fill="white"/>
<path d="M7.5 12.5H12V13.5H7.5V12.5Z" fill="white"/>
<path d="M5.5 4.5H6.5V5.5H5.5V4.5Z" fill="white"/>
<path d="M5.5 6.5H6.5V7.5H5.5V6.5Z" fill="white"/>
<path d="M5.5 8.5H6.5V9.5H5.5V8.5Z" fill="white"/>
<path d="M5.5 10.5H6.5V11.5H5.5V10.5Z" fill="white"/>
<path d="M5.5 12.5H6.5V13.5H5.5V12.5Z" fill="white"/>
<path d="M14 1.5H4C3.73478 1.5 3.48043 1.60536 3.29289 1.79289C3.10536 1.98043 3 2.23478 3 2.5V16.5C3 16.7652 3.10536 17.0196 3.29289 17.2071C3.48043 17.3946 3.73478 17.5 4 17.5H14C14.2652 17.5 14.5196 17.3946 14.7071 17.2071C14.8946 17.0196 15 16.7652 15 16.5V2.5C15 2.23478 14.8946 1.98043 14.7071 1.79289C14.5196 1.60536 14.2652 1.5 14 1.5ZM14 16.5H4V2.5H14V16.5Z" fill="white"/>
</g>
<defs>
<clipPath id="clip0_523_1422">
<rect width="18" height="18" fill="white" transform="translate(0 0.5)"/>
</clipPath>
</defs>
</svg>
