<svg width="130" height="130" viewBox="0 0 130 130" fill="none" xmlns="http://www.w3.org/2000/svg">
<g id="clarity:no-wifi-line" clip-path="url(#clip0_185_1527)">
<path id="Vector" d="M65.0001 88.1831C62.1433 88.1831 59.3506 89.0303 56.9752 90.6174C54.5998 92.2046 52.7485 94.4605 51.6552 97.0999C50.5619 99.7393 50.2759 102.644 50.8332 105.446C51.3906 108.247 52.7663 110.821 54.7864 112.841C56.8064 114.861 59.3802 116.237 62.1821 116.794C64.9841 117.352 67.8884 117.066 70.5278 115.972C73.1671 114.879 75.4231 113.028 77.0102 110.652C78.5974 108.277 79.4446 105.484 79.4446 102.628C79.4446 98.7966 77.9227 95.1226 75.2139 92.4138C72.505 89.7049 68.831 88.1831 65.0001 88.1831ZM65.0001 109.85C63.5717 109.85 62.1754 109.426 60.9877 108.633C59.8 107.839 58.8743 106.711 58.3277 105.391C57.781 104.072 57.638 102.62 57.9167 101.219C58.1953 99.8176 58.8832 98.5307 59.8932 97.5207C60.9033 96.5106 62.1902 95.8228 63.5911 95.5441C64.9921 95.2654 66.4443 95.4085 67.7639 95.9551C69.0836 96.5017 70.2116 97.4274 71.0052 98.6151C71.7988 99.8028 72.2223 101.199 72.2223 102.628C72.2223 104.543 71.4614 106.38 70.107 107.734C68.7526 109.089 66.9156 109.85 65.0001 109.85Z" fill="#333333"/>
<path id="Vector_2" d="M94.6469 78.9028C94.9258 78.5168 95.1256 78.0795 95.2348 77.6161C95.3441 77.1526 95.3606 76.6721 95.2834 76.2022C95.2062 75.7323 95.0368 75.2823 94.7851 74.8782C94.5333 74.474 94.204 74.1236 93.8163 73.8472C88.4079 69.9633 82.2642 67.2232 75.7607 65.7944L89.7357 79.7694C90.5087 80.2842 91.4503 80.4814 92.3649 80.32C93.2795 80.1586 94.0968 79.651 94.6469 78.9028Z" fill="#333333"/>
<path id="Vector_3" d="M65.1804 38.7109C60.1337 38.7245 55.101 39.2447 50.1582 40.2637L56.4415 46.547C59.3384 46.1565 62.2574 45.9514 65.1804 45.9332C78.8298 45.9386 92.1592 50.0671 103.422 57.7776C104.212 58.2301 105.143 58.3676 106.03 58.1627C106.917 57.9578 107.694 57.4255 108.205 56.6724C108.716 55.9193 108.924 55.0009 108.787 54.101C108.65 53.2012 108.179 52.3862 107.467 51.8193C95.0131 43.2905 80.2743 38.7216 65.1804 38.7109Z" fill="#333333"/>
<path id="Vector_4" d="M121.153 29.6113C107.745 20.752 92.4256 15.2026 76.4546 13.4197C60.4835 11.6367 44.3174 13.6712 29.2861 19.3557L34.9917 25.0252C48.5904 20.3883 63.0718 18.9342 77.3209 20.7748C91.57 22.6154 105.207 27.7016 117.181 35.6418C117.98 36.1498 118.948 36.3231 119.874 36.1245C120.8 35.9258 121.611 35.3712 122.132 34.58C122.653 33.7889 122.843 32.8246 122.66 31.8951C122.476 30.9657 121.935 30.1455 121.153 29.6113Z" fill="#333333"/>
<path id="Vector_5" d="M6.64453 17.1528L15.4195 25.9278C13.1806 27.1556 10.9779 28.4556 8.8112 29.9C8.4176 30.1656 8.08016 30.5061 7.81814 30.9021C7.55613 31.298 7.37467 31.7417 7.28414 32.2078C7.10129 33.1492 7.29987 34.1246 7.8362 34.9195C8.37252 35.7144 9.20266 36.2637 10.144 36.4465C11.0853 36.6294 12.0607 36.4308 12.8556 35.8945C15.3834 34.1973 18.0556 32.5 20.7279 31.2361L34.7029 45.2111C30.4303 47.0861 26.3438 49.3591 22.4973 52C21.9292 52.6067 21.5878 53.3908 21.5306 54.2199C21.4735 55.0491 21.7041 55.8726 22.1836 56.5515C22.663 57.2303 23.362 57.7231 24.1625 57.9465C24.9631 58.1699 25.8161 58.1103 26.5779 57.7778C30.8273 54.862 35.3946 52.439 40.1918 50.5556L55.214 65.5778C48.2963 67.0365 41.7782 69.9814 36.1112 74.2084C35.4054 74.7966 34.9503 75.6318 34.8387 76.5438C34.7271 77.4558 34.9673 78.376 35.5105 79.1171C36.0536 79.8582 36.8588 80.3644 37.7621 80.5325C38.6654 80.7007 39.5989 80.5182 40.3723 80.0223C46.5321 75.5481 53.8017 72.8501 61.389 72.2223L100.389 111.222L105.481 106.131L11.5918 12.2417L6.64453 17.1528Z" fill="#333333"/>
</g>
<defs>
<clipPath id="clip0_185_1527">
<rect width="130" height="130" fill="white"/>
</clipPath>
</defs>
</svg>
