<svg width="18" height="19" viewBox="0 0 18 19" fill="none" xmlns="http://www.w3.org/2000/svg">
<g clip-path="url(#clip0_150_2378)">
<path d="M8.75249 7.49757C8.68996 7.55935 8.64032 7.63293 8.60643 7.71404C8.57255 7.79514 8.5551 7.88217 8.5551 7.97007C8.5551 8.05798 8.57255 8.145 8.60643 8.22611C8.64032 8.30722 8.68996 8.3808 8.75249 8.44257L10.035 9.72507H3.82499C3.45374 9.72507 3.14999 10.0288 3.14999 10.4001C3.14999 10.7713 3.45374 11.0751 3.82499 11.0751H10.035L8.75249 12.3576C8.68996 12.4194 8.64032 12.4929 8.60643 12.574C8.57255 12.6551 8.5551 12.7422 8.5551 12.8301C8.5551 12.918 8.57255 13.005 8.60643 13.0861C8.64032 13.1672 8.68996 13.2408 8.75249 13.3026C9.01574 13.5658 9.43424 13.5658 9.69749 13.3026L12.1207 10.8793C12.1833 10.8169 12.233 10.7427 12.2668 10.661C12.3007 10.5794 12.3181 10.4919 12.3181 10.4034C12.3181 10.315 12.3007 10.2275 12.2668 10.1459C12.233 10.0642 12.1833 9.99002 12.1207 9.92757L9.69749 7.49757C9.63572 7.43504 9.56214 7.38539 9.48103 7.35151C9.39992 7.31763 9.3129 7.30018 9.22499 7.30018C9.13709 7.30018 9.05006 7.31763 8.96896 7.35151C8.88785 7.38539 8.81427 7.43504 8.75249 7.49757ZM15.3 15.1251H10.575C10.2037 15.1251 9.89999 15.4288 9.89999 15.8001C9.89999 16.1713 10.2037 16.4751 10.575 16.4751H15.3C16.0425 16.4751 16.65 15.8676 16.65 15.1251V5.67507C16.65 4.93257 16.0425 4.32507 15.3 4.32507H10.575C10.2037 4.32507 9.89999 4.62882 9.89999 5.00007C9.89999 5.37132 10.2037 5.67507 10.575 5.67507H15.3V15.1251Z" fill="white"/>
</g>
<defs>
<clipPath id="clip0_150_2378">
<rect width="18" height="18" fill="white" transform="translate(0 0.5)"/>
</clipPath>
</defs>
</svg>
