<svg width="24" height="24" viewBox="0 0 24 24" fill="none" xmlns="http://www.w3.org/2000/svg">
<g id="Icon/Solid/phone">
<path id="Icon" d="M21.5996 3.5999C21.5996 2.93716 21.0624 2.3999 20.3996 2.3999H17.8162C17.2296 2.3999 16.7289 2.824 16.6325 3.40262L15.7453 8.72567C15.6587 9.24531 15.9211 9.76067 16.3923 9.99626L18.2501 10.9251C16.9105 14.2539 14.2536 16.9108 10.9249 18.2504L9.99597 16.3926C9.76038 15.9214 9.24502 15.659 8.72538 15.7456L3.40233 16.6328C2.8237 16.7292 2.39961 17.2298 2.39961 17.8165V20.3999C2.39961 21.0626 2.93687 21.5999 3.59961 21.5999H5.99961C14.6153 21.5999 21.5996 14.6155 21.5996 5.9999V3.5999Z" fill="#333333"/>
</g>
</svg>
