<svg width="18" height="18" viewBox="0 0 18 18" fill="none" xmlns="http://www.w3.org/2000/svg">
<path fill-rule="evenodd" clip-rule="evenodd" d="M9.00001 3C9.30087 3 9.59744 3.02229 9.8863 3.06514L10.3217 4.38429C10.7032 4.49314 11.0657 4.64829 11.4017 4.84371L12.6532 4.24029C13.0963 4.58057 13.4906 4.98171 13.8232 5.43086L13.1974 6.67114C13.3869 7.01057 13.536 7.37571 13.638 7.75971L14.9494 8.21657C15.0217 8.77115 15.0168 9.33306 14.9349 9.88629L13.6157 10.3217C13.5076 10.6992 13.3533 11.062 13.1563 11.4017L13.7597 12.6531C13.419 13.0964 13.0183 13.4902 12.5692 13.8231L11.3289 13.1974C10.9858 13.389 10.6201 13.537 10.2403 13.638L9.78344 14.9494C9.22886 15.0217 8.66695 15.0168 8.11372 14.9349L7.6783 13.6157C7.30076 13.5076 6.93802 13.3533 6.5983 13.1563L5.34687 13.7597C4.9036 13.419 4.50984 13.0183 4.17687 12.5691L4.80258 11.3289C4.61145 10.9855 4.46347 10.6199 4.36201 10.2403L3.05058 9.78257C2.9784 9.22828 2.98331 8.66666 3.06515 8.11371L4.3843 7.67829C4.49315 7.29686 4.6483 6.93429 4.84372 6.59829L4.2403 5.34686C4.58104 4.90359 4.98173 4.50983 5.43087 4.17686L6.67115 4.80257C7.01426 4.61097 7.37994 4.46297 7.75972 4.362L8.21744 3.05057C8.47693 3.01681 8.73833 2.99992 9.00001 3Z" stroke="white" stroke-linecap="round" stroke-linejoin="round"/>
<path d="M9.00002 11.5714C10.4202 11.5714 11.5714 10.4202 11.5714 9.00002C11.5714 7.57986 10.4202 6.42859 9.00002 6.42859C7.57986 6.42859 6.42859 7.57986 6.42859 9.00002C6.42859 10.4202 7.57986 11.5714 9.00002 11.5714Z" stroke="white" stroke-linecap="round" stroke-linejoin="round"/>
</svg>
