<svg width="14" height="14" viewBox="0 0 14 14" fill="none" xmlns="http://www.w3.org/2000/svg">
<path d="M12.2027 1.79695C11.9478 1.54291 11.6026 1.40027 11.2427 1.40027C10.8828 1.40027 10.5375 1.54291 10.2826 1.79695L8.85251 3.22355C8.85108 3.22492 8.84968 3.22632 8.84831 3.22775C8.08209 2.85266 7.21985 2.71966 6.37622 2.84645C5.53259 2.97324 4.74753 3.3538 4.12541 3.93755C3.84304 3.87819 3.54904 3.91163 3.28721 4.03289C3.02539 4.15414 2.80972 4.35672 2.67235 4.61047C2.53497 4.86421 2.48323 5.15554 2.52483 5.44107C2.56643 5.7266 2.69914 5.99105 2.90321 6.19505L7.80531 11.0978C8.00937 11.3021 8.27399 11.435 8.55972 11.4766C8.84545 11.5182 9.13698 11.4664 9.39083 11.3288C9.64468 11.1912 9.84726 10.9752 9.96836 10.7131C10.0895 10.451 10.1226 10.1567 10.0628 9.87425C10.6466 9.25199 11.0271 8.46677 11.1538 7.623C11.2804 6.77923 11.1472 5.91688 10.7719 5.15065C10.7733 5.14902 10.7747 5.14739 10.7761 5.14575L12.2027 3.72265C12.3294 3.59636 12.43 3.4463 12.4986 3.28107C12.5672 3.11584 12.6025 2.9387 12.6025 2.7598C12.6025 2.5809 12.5672 2.40375 12.4986 2.23853C12.43 2.0733 12.3294 1.92324 12.2027 1.79695ZM10.3995 4.53325C10.1391 4.17538 9.82428 3.86053 9.46641 3.60015L10.7768 2.29255C10.8375 2.22832 10.9104 2.17691 10.9913 2.14139C11.0722 2.10587 11.1594 2.08695 11.2478 2.08576C11.3361 2.08456 11.4238 2.10112 11.5056 2.13444C11.5875 2.16776 11.6618 2.21717 11.7242 2.27974C11.7865 2.34231 11.8357 2.41676 11.8688 2.4987C11.9019 2.58063 11.9182 2.66836 11.9167 2.75671C11.9153 2.84505 11.8961 2.9322 11.8603 3.01299C11.8245 3.09378 11.7729 3.16657 11.7085 3.22705L10.3995 4.53325ZM4.78481 4.28965C5.45657 3.73998 6.30862 3.45954 7.17552 3.50276C8.04243 3.54599 8.86235 3.90979 9.47611 4.52355C10.0899 5.13731 10.4537 5.95723 10.4969 6.82414C10.5401 7.69104 10.2597 8.54308 9.71001 9.21485L9.69881 9.20365L4.79671 4.30155L4.78481 4.28965ZM4.28501 4.77965L9.22001 9.71535C9.33771 9.83732 9.40214 10.0011 9.39912 10.1705C9.3961 10.34 9.32588 10.5013 9.20391 10.619C9.08194 10.7368 8.9182 10.8012 8.74872 10.7982C8.57925 10.7951 8.41791 10.7249 8.30021 10.6029L3.39741 5.70015C3.28086 5.58127 3.21529 5.42161 3.21466 5.25513C3.21403 5.08866 3.27838 4.9285 3.39403 4.80875C3.50968 4.689 3.6675 4.6191 3.83389 4.61392C4.00029 4.60875 4.16214 4.66871 4.28501 4.78105V4.77965ZM4.79741 9.20295C4.86302 9.26858 4.89988 9.35759 4.89988 9.4504C4.89988 9.54321 4.86302 9.63221 4.79741 9.69785L3.39741 11.0978C3.33178 11.1636 3.24273 11.2005 3.14986 11.2006C3.05698 11.2007 2.96788 11.1638 2.90216 11.0982C2.83644 11.0326 2.79948 10.9435 2.79941 10.8506C2.79935 10.7578 2.83618 10.6687 2.90181 10.6029L4.30181 9.20295C4.33432 9.17035 4.37294 9.14449 4.41547 9.12685C4.45799 9.10921 4.50357 9.10012 4.54961 9.10012C4.59565 9.10012 4.64123 9.10921 4.68375 9.12685C4.72627 9.14449 4.7649 9.17035 4.79741 9.20295ZM3.39741 8.29785C3.4299 8.26531 3.45567 8.22668 3.47324 8.18418C3.49081 8.14168 3.49984 8.09614 3.4998 8.05015C3.49977 8.00416 3.49068 7.95863 3.47305 7.91616C3.45542 7.87368 3.4296 7.83509 3.39706 7.8026C3.36452 7.7701 3.32589 7.74434 3.28339 7.72677C3.24089 7.7092 3.19535 7.70017 3.14936 7.7002C3.10337 7.70024 3.05784 7.70933 3.01537 7.72696C2.97289 7.74459 2.9343 7.77041 2.90181 7.80295L1.50181 9.20295C1.46931 9.23549 1.44355 9.27411 1.42598 9.31661C1.40841 9.35911 1.39938 9.40466 1.39941 9.45065C1.39948 9.54352 1.43644 9.63257 1.50216 9.6982C1.56788 9.76383 1.65698 9.80066 1.74986 9.80059C1.84273 9.80053 1.93178 9.76357 1.99741 9.69785L3.39741 8.29785ZM6.19741 10.6029C6.26302 10.6686 6.29988 10.7576 6.29988 10.8504C6.29988 10.9432 6.26302 11.0322 6.19741 11.0978L4.79741 12.4978C4.76491 12.5304 4.72633 12.5562 4.68385 12.5738C4.64138 12.5915 4.59584 12.6006 4.54986 12.6006C4.50387 12.6006 4.45832 12.5916 4.41582 12.574C4.37332 12.5565 4.3347 12.5307 4.30216 12.4982C4.26962 12.4657 4.24379 12.4271 4.22617 12.3846C4.20854 12.3422 4.19945 12.2966 4.19941 12.2506C4.19938 12.2047 4.20841 12.1591 4.22598 12.1166C4.24355 12.0741 4.26931 12.0355 4.30181 12.0029L5.70181 10.6029C5.73432 10.5704 5.77294 10.5445 5.81547 10.5268C5.85799 10.5092 5.90357 10.5001 5.94961 10.5001C5.99565 10.5001 6.04123 10.5092 6.08375 10.5268C6.12627 10.5445 6.1649 10.5704 6.19741 10.6029Z" fill="#818181"/>
</svg>
