<svg width="18" height="19" viewBox="0 0 18 19" fill="none" xmlns="http://www.w3.org/2000/svg">
<g clip-path="url(#clip0_150_2466)">
<path d="M8.04895 3.42664C8.34833 2.50538 9.65167 2.50538 9.95104 3.42664L10.7963 6.02768C10.9302 6.43967 11.3141 6.71861 11.7473 6.71863L14.4822 6.71873C15.4509 6.71877 15.8537 7.95832 15.07 8.52773L12.8575 10.1354C12.507 10.39 12.3604 10.8413 12.4942 11.2533L13.3392 13.8544C13.6385 14.7757 12.5841 15.5418 11.8004 14.9725L9.58776 13.365C9.23728 13.1104 8.76272 13.1104 8.41225 13.365L6.19958 14.9725C5.41588 15.5418 4.36145 14.7757 4.66076 13.8544L5.5058 11.2533C5.63965 10.8413 5.493 10.39 5.14255 10.1354L2.93 8.52773C2.14634 7.95832 2.54909 6.71877 3.51778 6.71873L6.25271 6.71863C6.68591 6.71861 7.06984 6.43967 7.20372 6.02768L8.04895 3.42664Z" stroke="white"/>
</g>
<defs>
<clipPath id="clip0_150_2466">
<rect width="18" height="18" fill="white" transform="translate(0 0.5)"/>
</clipPath>
</defs>
</svg>
