<svg width="18" height="19" viewBox="0 0 18 19" fill="none" xmlns="http://www.w3.org/2000/svg">
<g clip-path="url(#clip0_150_2385)">
<path d="M3.85714 9.50004V6.11862C3.86718 5.45394 4.00828 4.79778 4.27235 4.18773C4.53641 3.57768 4.91826 3.02574 5.39601 2.56351C5.87376 2.10129 6.43802 1.73788 7.05645 1.49411C7.67489 1.25033 8.33535 1.13099 9 1.1429C9.66464 1.13099 10.3251 1.25033 10.9435 1.49411C11.562 1.73788 12.1262 2.10129 12.604 2.56351C13.0817 3.02574 13.4636 3.57768 13.7276 4.18773C13.9917 4.79778 14.1328 5.45394 14.1429 6.11862V9.50004M11.5714 16.25C12.2534 16.25 12.9075 15.9791 13.3897 15.4969C13.8719 15.0147 14.1429 14.3606 14.1429 13.6786V10.7858M11.5714 16.25C11.5714 16.6763 11.4021 17.0851 11.1007 17.3865C10.7993 17.6879 10.3905 17.8572 9.96428 17.8572H8.03571C7.60947 17.8572 7.20069 17.6879 6.89929 17.3865C6.59789 17.0851 6.42857 16.6763 6.42857 16.25C6.42857 15.8238 6.59789 15.415 6.89929 15.1136C7.20069 14.8122 7.60947 14.6429 8.03571 14.6429H9.96428C10.3905 14.6429 10.7993 14.8122 11.1007 15.1136C11.4021 15.415 11.5714 15.8238 11.5714 16.25ZM1.92857 7.57147H3.21428C3.38478 7.57147 3.54829 7.6392 3.66885 7.75976C3.78941 7.88032 3.85714 8.04383 3.85714 8.21433V12.0715C3.85714 12.242 3.78941 12.4055 3.66885 12.526C3.54829 12.6466 3.38478 12.7143 3.21428 12.7143H1.92857C1.58757 12.7143 1.26055 12.5789 1.01943 12.3378C0.778312 12.0966 0.642853 11.7696 0.642853 11.4286V8.85719C0.642853 8.51619 0.778312 8.18917 1.01943 7.94805C1.26055 7.70693 1.58757 7.57147 1.92857 7.57147ZM16.0714 12.7143H14.7857C14.6152 12.7143 14.4517 12.6466 14.3311 12.526C14.2106 12.4055 14.1429 12.242 14.1429 12.0715V8.21433C14.1429 8.04383 14.2106 7.88032 14.3311 7.75976C14.4517 7.6392 14.6152 7.57147 14.7857 7.57147H16.0714C16.4124 7.57147 16.7394 7.70693 16.9806 7.94805C17.2217 8.18917 17.3571 8.51619 17.3571 8.85719V11.4286C17.3571 11.7696 17.2217 12.0966 16.9806 12.3378C16.7394 12.5789 16.4124 12.7143 16.0714 12.7143Z" stroke="white" stroke-linecap="round" stroke-linejoin="round"/>
</g>
<defs>
<clipPath id="clip0_150_2385">
<rect width="18" height="18" fill="white" transform="translate(0 0.5)"/>
</clipPath>
</defs>
</svg>
