<svg width="100" height="100" viewBox="0 0 100 100" fill="none" xmlns="http://www.w3.org/2000/svg">
<g id="Success">
<g id="Green">
<path id="Vector" d="M34.375 2.38281C33.5156 2.67578 31.8945 4.29688 31.1719 5.56641C30.8789 6.09375 30.2344 7.46094 29.7461 8.59375C29.2773 9.72656 28.6719 11.1133 28.3984 11.6797C28.1445 12.2461 27.9297 12.7539 27.9297 12.8125C27.9297 12.8516 27.5781 13.4766 27.1289 14.1602C25.4883 16.7773 24.1406 17.3242 18.0664 17.8711C12.0312 18.418 10.2148 19.082 9.16016 21.1523C8.30078 22.793 8.4375 24.668 9.84375 30.7031C11.25 36.8164 10.7617 38.0273 4.84375 43.0664C2.71484 44.8633 0.996094 46.7383 0.46875 47.793C0.195312 48.3398 0.0976562 48.9648 0.0976562 50.0977C0.0976562 51.5625 0.136719 51.7188 0.800781 52.7344C1.69922 54.0625 2.53906 54.9414 5.11719 57.1484C10.7422 61.9727 11.2305 63.2422 9.84375 69.2969C8.57422 74.8047 8.37891 76.3477 8.82812 78.0859C9.16016 79.4336 10.4688 80.6445 12.1484 81.2109C13.4375 81.6211 14.3164 81.7578 19.7266 82.3047C21.2305 82.4609 22.9492 82.7734 23.7305 83.0273C26.0547 83.7891 27.3047 85.4102 29.1992 90.1367C31.4258 95.7031 33.2812 97.8516 35.8594 97.8516C37.0703 97.8516 39.0039 97.0703 41.6016 95.5078C43.0469 94.6484 45.1562 93.4766 46.2891 92.9102C48.2812 91.9336 48.3789 91.8945 50 91.9141C51.5039 91.9141 51.7969 91.9727 53.2031 92.6367C54.043 93.0273 55.9961 94.1211 57.5586 95.0391C61.9531 97.6758 63.6523 98.2031 65.6055 97.5586C67.3633 96.9727 69.2188 94.3555 70.7617 90.2344C71.0156 89.5312 71.582 88.2617 72.0312 87.4023C74.1602 83.1836 75.1953 82.6758 82.9102 82.0312C85.8203 81.7773 87.5391 81.4258 88.7305 80.8398C91.6016 79.3945 91.9727 77.1484 90.4297 70.5078C89.4141 66.1523 89.2773 63.9453 89.9609 62.5C90.5469 61.25 91.7969 59.8242 93.9453 57.9883C96.7188 55.625 98.3984 53.9258 99.1992 52.7344C99.8633 51.6992 99.9023 51.582 99.9023 50C99.8828 48.5938 99.8242 48.2227 99.3945 47.5195C98.7305 46.3867 97.4805 45.1172 94.7852 42.7539C89.0039 37.6953 88.6914 36.7578 90.4297 29.4922C91.543 24.8438 91.6406 22.6953 90.8398 21.1328C89.8047 19.1211 87.8906 18.3984 82.1094 17.8906C78.3008 17.5391 77.8125 17.4609 76.4648 17.0508C75.1562 16.6406 74.1992 16.0156 73.4961 15.0977C72.793 14.2188 71.4258 11.543 70.7617 9.76562C69.9414 7.57812 68.5156 4.88281 67.6367 3.90625C66.543 2.67578 65.1367 2.07031 63.7695 2.20703C62.2852 2.36328 60.8789 2.96875 57.9883 4.70703C54.668 6.71875 52.5586 7.75391 51.1133 8.04688C49.043 8.47656 47.3047 7.87109 42.6172 5.03906C38.3594 2.48047 36.1914 1.77734 34.375 2.38281ZM69.043 35.332C70.0391 35.7812 71.1328 36.8359 71.7188 37.9492C72.3633 39.1406 72.3633 41.7188 71.6992 42.9688C71.3867 43.5547 67.6758 47.4219 60.1758 54.9219C47.8125 67.3047 48.2031 66.9922 45.6055 66.9922C43.2227 66.9922 43.125 66.9141 35.332 59.0625C28.8672 52.5586 28.3398 51.9727 28.0273 50.9961C27.3438 48.8672 28.0469 46.25 29.6875 44.9023C31.3477 43.5156 33.8867 43.2031 35.7422 44.1406C36.3086 44.4141 38.2422 46.1719 41.1133 49.043L45.6055 53.5156L54.1992 44.9219C58.9258 40.1953 63.125 36.0938 63.5352 35.8008C65.0586 34.7461 67.2852 34.5508 69.043 35.332Z" fill="#333333"/>
</g>
<g id="Silver">
<path id="Vector_2" d="M64.648 35.3907C63.6714 35.7617 62.773 36.6016 54.5894 44.7461L45.605 53.6914L40.9175 49.043C36.855 45.0196 36.0933 44.3555 35.273 44.0821C32.5386 43.1641 29.8433 44.2188 28.5347 46.6992C27.9293 47.8711 27.8902 48.0469 27.9683 49.4141C28.0269 50.2735 28.2027 51.1524 28.398 51.5625C28.5933 51.9336 31.8355 55.3321 35.605 59.1211C43.1636 66.6992 43.3394 66.8555 45.605 66.875C47.8902 66.8946 47.3238 67.3633 59.7457 55C72.3043 42.4805 72.0699 42.7735 72.0699 40.4297C72.0699 38.8086 71.4839 37.5196 70.2535 36.3867C68.7496 35 66.6597 34.6289 64.648 35.3907Z" fill="white"/>
</g>
</g>
</svg>
