<svg width="14" height="14" viewBox="0 0 14 14" fill="none" xmlns="http://www.w3.org/2000/svg">
<path d="M9.91699 11.6667H12.8337V10.5C12.8337 9.53354 12.0502 8.75004 11.0837 8.75004C10.5262 8.75004 10.0297 9.01067 9.70918 9.41673M9.91699 11.6667H4.08366M9.91699 11.6667V10.5C9.91699 10.1172 9.84324 9.75165 9.70918 9.41673M4.08366 11.6667H1.16699V10.5C1.16699 9.53354 1.95049 8.75004 2.91699 8.75004C3.47443 8.75004 3.97099 9.01067 4.29147 9.41673M4.08366 11.6667V10.5C4.08366 10.1172 4.15741 9.75165 4.29147 9.41673M4.29147 9.41673C4.72154 8.34231 5.7723 7.58337 7.00033 7.58337C8.22835 7.58337 9.27912 8.34231 9.70918 9.41673M8.75033 4.08337C8.75033 5.04987 7.96682 5.83337 7.00033 5.83337C6.03383 5.83337 5.25033 5.04987 5.25033 4.08337C5.25033 3.11688 6.03383 2.33337 7.00033 2.33337C7.96682 2.33337 8.75033 3.11688 8.75033 4.08337ZM12.2503 5.83337C12.2503 6.47771 11.728 7.00004 11.0837 7.00004C10.4393 7.00004 9.91699 6.47771 9.91699 5.83337C9.91699 5.18904 10.4393 4.66671 11.0837 4.66671C11.728 4.66671 12.2503 5.18904 12.2503 5.83337ZM4.08366 5.83337C4.08366 6.47771 3.56132 7.00004 2.91699 7.00004C2.27266 7.00004 1.75033 6.47771 1.75033 5.83337C1.75033 5.18904 2.27266 4.66671 2.91699 4.66671C3.56132 4.66671 4.08366 5.18904 4.08366 5.83337Z" stroke="#818181" stroke-linecap="round" stroke-linejoin="round"/>
</svg>
